
<svg width="16px" height="16px" viewBox="0 0 16 16" version="1.1" xmlns="http://www.w3.org/2000/svg" xmlns:xlink="http://www.w3.org/1999/xlink">
    <!-- Generator: Sketch 39.1 (31720) - http://www.bohemiancoding.com/sketch -->
    <desc>Created with Sketch.</desc>
    <defs></defs>
    <path d="M8.14056667,0.00177142946 L8.21830997,0 C8.306108,0 8.39320744,0.00476539475 8.47988274,0.0147702288 C12.6684901,0.262670555 16,3.74253146 16,7.98435653 C16,12.2262315 12.6684901,15.7060924 8.47988274,15.9539927 C8.39320744,15.9639976 8.306108,15.968763 8.21830997,15.968763 L8.14056667,15.9669915 L8,15.968763 C3.58881629,15.968763 0,12.3870074 0,7.98435653 C0,3.58175552 3.58881629,0 8,0 L8.14056667,0.00177142946 Z M8.48242761,10.9349093 L8.48242761,14.9057306 C9.62427607,14.5753216 10.6131329,13.0727003 11.1215581,11.0428917 C10.3863151,10.9860063 9.51092953,10.9446397 8.48242761,10.9349093 L8.48242761,10.9349093 Z M7.48638525,10.9352337 C6.46821251,10.9454132 5.59003259,10.9855323 4.84490948,11.0400973 C5.36201718,13.0434842 6.35711145,14.53393 7.48638525,14.8920332 L7.48638525,10.9352337 Z M3.87808324,11.1256748 C2.91584774,11.2260225 2.26595768,11.3436355 1.90286454,11.4211293 C2.71976797,12.8598544 4.03332034,13.9824167 5.60936862,14.5551373 C4.87173042,13.707895 4.2566452,12.5237319 3.87808324,11.1256748 L3.87808324,11.1256748 Z M12.1473156,11.1403702 C11.8537573,12.4472859 11.3813844,13.5666547 10.7851362,14.3976048 C12.1695208,13.7967659 13.3227713,12.7620016 14.0715371,11.466438 C13.7589421,11.3871977 13.1377941,11.2538165 12.1473156,11.1403702 L12.1473156,11.1403702 Z M14.4616258,5.28779179 L14.6508693,5.82064277 C14.6055357,5.83686008 13.9299225,6.06906704 12.3859596,6.2533955 C12.4497809,6.80925011 12.4831387,7.38818319 12.4831387,7.98435653 C12.4831387,8.74110621 12.429372,9.47013676 12.3283257,10.1589983 C13.5480422,10.3015609 14.23875,10.4752109 14.513122,10.5553743 C14.8298336,9.75932885 15.0039576,8.89175256 15.0039576,7.98435653 C15.0039576,7.02913191 14.8109966,6.11809322 14.4616258,5.28779179 L14.4616258,5.28779179 Z M1.3199395,5.88186936 C1.10946374,6.54558156 0.996042352,7.25198272 0.996042352,7.98435653 C0.996042352,8.87081975 1.16220743,9.71925962 1.46549611,10.5001856 C1.78527655,10.4224423 2.49871353,10.2724696 3.65939902,10.1471472 C3.5366215,9.46150416 3.46985607,8.73661526 3.46985607,7.98435653 C3.46985607,7.3920504 3.51124764,6.81673502 3.58901589,6.26427357 C2.24008483,6.11514915 1.51312511,5.93456315 1.3199395,5.88186936 L1.3199395,5.88186936 Z M8.48242761,1.06303233 L8.48242761,5.48417097 C9.56060441,5.47396654 10.4685992,5.42985545 11.223303,5.36977654 C10.753974,3.11739151 9.70611112,1.41709367 8.48242761,1.06303233 L8.48242761,1.06303233 Z M7.48638525,1.07672972 C6.27555084,1.46040637 5.21865615,3.14670742 4.74034524,5.37097413 C5.5071247,5.4297806 6.42003462,5.47336774 7.48638525,5.48379672 L7.48638525,1.07672972 Z M5.60939357,1.41362566 C3.88926071,2.03874066 2.48172278,3.31871072 1.69086685,4.95014736 C1.96301829,5.0157152 2.64107658,5.15967503 3.769053,5.28202841 C4.13124795,3.69293144 4.7955839,2.34839152 5.60939357,1.41362566 L5.60939357,1.41362566 Z M10.7851362,1.57115813 C11.4476259,2.49444713 11.9571988,3.7736188 12.2382323,5.27045175 C13.4991158,5.12160177 14.1302687,4.94256265 14.2818132,4.89538274 C13.5490901,3.41621419 12.306869,2.23147718 10.7851362,1.57115813 Z M5.48893636,8.73239876 C5.76452326,8.73239876 5.98793058,8.50899144 5.98793058,8.23340454 C5.98793058,7.95781765 5.76452326,7.73441033 5.48893636,7.73441033 C5.21334947,7.73441033 4.98994215,7.95781765 4.98994215,8.23340454 C4.98994215,8.50899144 5.21334947,8.73239876 5.48893636,8.73239876 Z M10.4788785,8.73239876 C10.7544654,8.73239876 10.9778727,8.50899144 10.9778727,8.23340454 C10.9778727,7.95781765 10.7544654,7.73441033 10.4788785,7.73441033 C10.2032916,7.73441033 9.9798843,7.95781765 9.9798843,8.23340454 C9.9798843,8.50899144 10.2032916,8.73239876 10.4788785,8.73239876 Z M7.98390744,8.73239876 C8.25949433,8.73239876 8.48290165,8.50899144 8.48290165,8.23340454 C8.48290165,7.95781765 8.25949433,7.73441033 7.98390744,7.73441033 C7.70832054,7.73441033 7.48491322,7.95781765 7.48491322,8.23340454 C7.48491322,8.50899144 7.70832054,8.73239876 7.98390744,8.73239876 Z" id="Combined-Shape" stroke="none" fill="#C5BCB5" fill-rule="evenodd"></path>
</svg>