<svg width="14px" height="17px" viewBox="0 0 14 17" version="1.1" xmlns="http://www.w3.org/2000/svg" xmlns:xlink="http://www.w3.org/1999/xlink">
    <!-- Generator: Sketch 39.1 (31720) - http://www.bohemiancoding.com/sketch -->
    <desc>Created with Sketch.</desc>
    <defs></defs>
    <g id="Group" stroke="none" stroke-width="1" fill="none" fill-rule="evenodd">
        <path d="M1.87631455,13.7714304 C1.87631455,8.56915784 0.417046807,5.57592608 0.417169976,4.1225353 C0.417312899,2.43605794 1.32525118,1.10555948 2.62978434,0.570901363 C3.9343175,0.0362432486 6.94265122,-0.514699473 8.78977938,1.1693209 C10.6369075,2.85334127 10.3832252,5.9866444 10.5964969,5.9866444 C10.8097686,5.9866444 10.7077709,5.75038139 11.3706504,5.42822663 C11.979981,5.13209626 13.59334,4.90631501 13.7504889,6.70108226 C13.7574922,6.78106653 13.5783679,7.79149904 13.1176986,8.4305776 C12.6570292,9.06965615 13.0195861,11.888221 10.9654384,13.0297945 C9.22204615,13.9986686 9.81763267,16.8231446 9.81763267,16.8231446 L1.36243961,16.8231446 C1.79083535,15.8144634 1.87631455,14.9576067 1.87631455,13.7714304 Z M2.65055665,12.9427132 C2.57734333,9.6973227 1.27262432,5.55700778 1.27272727,4.25649741 C1.27284674,2.74741857 1.9271671,1.61175138 3.0176029,1.1333333 C4.1080387,0.654915227 6.9315417,0.211116221 8.47552291,1.71799653 C10.0195041,3.22487683 9.89946253,9.05947257 10.3360929,9.05947257 C10.7727232,9.05947257 10.2392628,7.3318033 11.1874001,6.28472892 C11.6694579,5.75236894 12.9750755,5.71903068 12.9750755,7.00959465 C12.9750755,7.08161098 12.7540727,7.66632479 12.3690075,8.23817944 C11.9839422,8.8100341 12.2597878,11.2524012 10.5427627,12.273894 C9.08549245,13.1408533 9.060541,16.1076995 9.060541,16.1076995 L2.33594449,16.1076995 C2.33594449,16.1076995 2.70086149,15.17262 2.65055665,12.9427132 Z" id="Combined-Shape" fill="#C5BCB5"></path>
        <polygon id="¥" fill="#C5BCB5" points="3.81818182 5.66666667 5.63563636 8.51473333 4.31709091 8.51473333 4.31709091 8.9114 5.88509091 8.9114 5.88509091 9.68886667 4.31709091 9.68886667 4.31709091 10.0855333 5.88509091 10.0855333 5.88509091 11.3310667 6.66909091 11.3310667 6.66909091 10.0855333 8.246 10.0855333 8.246 9.68886667 6.66909091 9.68886667 6.66909091 8.9114 8.246 8.9114 8.246 8.51473333 6.91854545 8.51473333 8.736 5.66666667 7.854 5.66666667 6.27709091 8.2688 4.70018182 5.66666667"></polygon>
    </g>
</svg>