<svg width="16px" height="16px" viewBox="0 0 16 16" version="1.1" xmlns="http://www.w3.org/2000/svg" xmlns:xlink="http://www.w3.org/1999/xlink">
    <!-- Generator: Sketch 39.1 (31720) - http://www.bohemiancoding.com/sketch -->
    <desc>Created with Sketch.</desc>
    <defs></defs>
    <path d="M8.0000125,0 C3.5815306,0 0,3.5815306 0,7.9999875 C0,12.4184694 3.5815306,16 8.0000125,16 C12.4184694,16 16,12.4184694 16,7.9999875 C16,3.5815306 12.4184694,0 8.0000125,0 L8.0000125,0 Z M8.0000125,0.999976562 C11.8598685,0.999976562 14.9999984,4.14013147 14.9999984,7.9999875 C14.9999984,11.8598685 11.8598685,15.0000234 8.0000125,15.0000234 C4.14015647,15.0000234 1.00000156,11.8598685 1.00000156,7.9999875 C1.00000156,4.14013147 4.14015647,0.999976562 8.0000125,0.999976562 L8.0000125,0.999976562 Z M7.91323736,13.0233703 C4.85903259,13.0233703 3.57828059,10.267516 3.52508051,10.1493159 C3.41128033,9.89736546 3.5230805,9.60149 3.7745809,9.48771482 C4.02653129,9.37441465 4.32143175,9.48578982 4.43565693,9.73579021 C4.478682,9.83001536 5.51433362,12.0233938 7.91518737,12.0233938 C7.93081239,12.0233938 7.94643742,12.0228688 7.96208744,12.0228688 C10.5138164,11.9930687 11.536793,9.76211525 11.547043,9.73966522 C11.6588182,9.48771482 11.9532937,9.37296465 12.2071691,9.48671482 C12.4591195,9.599065 12.5729196,9.89446546 12.4601445,10.1469159 C12.4088194,10.262616 11.1593424,12.9852703 7.97376246,13.0228703 C7.95378743,13.0228703 7.9332624,13.0233703 7.91323736,13.0233703 L7.91323736,13.0233703 Z M4.49450702,6.49988516 C4.49450702,7.05058602 4.94093272,7.49743671 5.49208358,7.49743671 C6.04323444,7.49743671 6.48966014,7.05058602 6.48966014,6.49988516 C6.48966014,5.9495343 6.04323444,5.5027086 5.49208358,5.5027086 C4.94093272,5.5027086 4.49450702,5.9495343 4.49450702,6.49988516 L4.49450702,6.49988516 Z M9.49451484,6.49988516 C9.49451484,7.05058602 9.94094053,7.49743671 10.4920914,7.49743671 C11.0432423,7.49743671 11.489643,7.05058602 11.489643,6.49988516 C11.489643,5.9495343 11.0432423,5.5027086 10.4920914,5.5027086 C9.94094053,5.5027086 9.49451484,5.9495343 9.49451484,6.49988516 L9.49451484,6.49988516 Z" id="Page-1" stroke="none" fill="#C5BCB5" fill-rule="evenodd"></path>
</svg>