
<svg width="7px" height="8px" viewBox="0 0 7 8" version="1.1" xmlns="http://www.w3.org/2000/svg" xmlns:xlink="http://www.w3.org/1999/xlink">
    <!-- Generator: Sketch 39.1 (31720) - http://www.bohemiancoding.com/sketch -->
    <desc>Created with Sketch.</desc>
    <defs></defs>
    <path d="M3.4648737,7.96347409 C3.36435675,7.96347409 3.26748901,7.95201092 3.19214501,7.9311945 L0.37771427,7.1548096 C0.166235359,7.09615603 0,6.88758946 0,6.66941949 L0,1.38020081 C0,1.1227472 0.243261931,0.942403516 0.494423183,1.01122603 L3.30887577,1.78761093 C3.38207833,1.80801406 3.54148509,1.80824246 3.61488431,1.78868764 L6.50358833,1.00974691 C6.75370071,0.941979357 6.99696264,1.1229756 6.99696264,1.38020081 L6.99696264,6.66941949 C6.99696264,6.88843778 6.83009359,7.09659107 6.61798098,7.15374377 L3.72927696,7.93267362 C3.63557769,7.95816666 3.53379336,7.96347409 3.4648737,7.96347409 L3.4648737,7.96347409 Z M4.3861989,6.09929548 C4.29081706,6.09929548 4.2031051,6.03662871 4.17600923,5.94061652 C4.14336307,5.82504952 4.21099349,5.70504516 4.32730908,5.67233055 L5.85647772,5.24386474 C5.97191925,5.21180268 6.09334809,5.27892855 6.12599424,5.3944738 C6.1586404,5.5100408 6.09100998,5.63004516 5.97469439,5.66275978 L4.44552575,6.09122558 C4.42588124,6.09673965 4.40582155,6.09929548 4.3861989,6.09929548 L4.3861989,6.09929548 Z M2.63807813,6.09929548 C2.73345997,6.09929548 2.82117193,6.03662871 2.8482678,5.94061652 C2.88091395,5.82504952 2.81328353,5.70504516 2.69696795,5.67233055 L1.1677993,5.24386474 C1.05235778,5.21180268 0.930928939,5.27892855 0.898282784,5.3944738 C0.865636628,5.5100408 0.93326705,5.63004516 1.04958264,5.66275978 L2.57875128,6.09122558 C2.59839579,6.09673965 2.61845547,6.09929548 2.63807813,6.09929548 L2.63807813,6.09929548 Z M4.3861989,4.794191 C4.29081706,4.794191 4.2031051,4.73152423 4.17600923,4.63551204 C4.14336307,4.51994504 4.21099349,4.39994068 4.32730908,4.36722607 L5.85647772,3.93876026 C5.97191925,3.9066982 6.09334809,3.97382407 6.12599424,4.08936932 C6.1586404,4.20493632 6.09100998,4.32494068 5.97469439,4.3576553 L4.44552575,4.7861211 C4.42588124,4.79162429 4.40582155,4.794191 4.3861989,4.794191 L4.3861989,4.794191 Z M2.63807813,4.794191 C2.73345997,4.794191 2.82117193,4.73152423 2.8482678,4.63551204 C2.88091395,4.51994504 2.81328353,4.39994068 2.69696795,4.36722607 L1.1677993,3.93876026 C1.05235778,3.9066982 0.930928939,3.97382407 0.898282784,4.08936932 C0.865636628,4.20493632 0.93326705,4.32494068 1.04958264,4.3576553 L2.57875128,4.7861211 C2.59839579,4.79162429 2.61845547,4.794191 2.63807813,4.794191 L2.63807813,4.794191 Z M4.3861989,3.48908652 C4.29081706,3.48908652 4.2031051,3.42641975 4.17600923,3.33040756 C4.14336307,3.21484056 4.21099349,3.09484708 4.32730908,3.06212159 L5.85647772,2.63365578 C5.97191925,2.60159372 6.09334809,2.66871959 6.12599424,2.78426484 C6.1586404,2.89983184 6.09100998,3.01984708 5.97469439,3.05255082 L4.44552575,3.48101662 C4.42588124,3.48651981 4.40582155,3.48908652 4.3861989,3.48908652 L4.3861989,3.48908652 Z M2.63807813,3.48908652 C2.73345997,3.48908652 2.82117193,3.42641975 2.8482678,3.33040756 C2.88091395,3.21484056 2.81328353,3.09484708 2.69696795,3.06212159 L1.1677993,2.63365578 C1.05235778,2.60159372 0.930928939,2.66871959 0.898282784,2.78426484 C0.865636628,2.89983184 0.93326705,3.01984708 1.04958264,3.05255082 L2.57875128,3.48101662 C2.59839579,3.48651981 2.61845547,3.48908652 2.63807813,3.48908652 L2.63807813,3.48908652 Z" id="Page-1" stroke="none" fill="#3E2311" fill-rule="evenodd"></path>
</svg>