
<svg width="16px" height="19px" viewBox="0 -1 16 19" version="1.1" xmlns="http://www.w3.org/2000/svg" xmlns:xlink="http://www.w3.org/1999/xlink">
    <!-- Generator: Sketch 39.1 (31720) - http://www.bohemiancoding.com/sketch -->
    <desc>Created with Sketch.</desc>
    <defs></defs>
    <path d="M5.09457537,14.4090011 L1.99087951,14.4090011 C1.47162168,14.4090011 0.843079801,14.3447571 0.59192833,13.8446456 C0.306405727,13.2764262 0.729355185,12.7081203 1.26493354,11.9884315 C1.86020001,11.1875726 2.79961032,10.1552852 2.79961032,9.06325211 L2.79961032,5.52648576 C2.79961032,2.47910435 5.06078093,-1.77635684e-15 7.9734748,-1.77635684e-15 C10.8857073,-1.77635684e-15 13.1648997,2.47910435 13.1648997,5.52648576 L13.1648997,9.06325211 C13.1648997,10.173826 14.0305217,11.2630622 14.6624084,12.0317991 C15.257127,12.7549192 15.6868526,13.2775219 15.4182272,13.8468947 C15.1532639,14.4071268 14.3848442,14.4089722 14.049668,14.4090011 L10.8731065,14.4090011 C10.8716071,16.0046347 9.57862393,17.2966951 7.98385534,17.2966951 C6.38908675,17.2966951 5.09607478,16.0046347 5.09457537,14.4090011 L5.09457537,14.4090011 Z M9.73862847,14.4090011 L6.22761164,14.4090011 C6.22911105,15.3774192 7.01451447,16.1617846 7.98310564,16.1617846 C8.95169681,16.1617846 9.73712906,15.3774192 9.73862847,14.4090011 L9.73862847,14.4090011 Z M1.78136555,13.2493503 C1.83880456,13.2533006 1.90803701,13.2555786 1.99087951,13.2555786 L14.049668,13.2555786 C14.0907865,13.2555786 14.1285024,13.2550307 14.1628736,13.2538773 C14.0463231,13.0984575 13.8964973,12.9159906 13.7714694,12.7639157 C13.0286262,11.8605778 12.011506,10.5872312 12.011506,9.06325211 L12.011506,5.52648576 C12.011506,3.11497028 10.249899,1.15339367 7.9734748,1.15339367 C5.69716589,1.15339367 3.95297515,3.11497028 3.95297515,5.52648576 L3.95297515,9.06325211 C3.95297515,10.5371162 2.85027313,11.7890385 2.19024361,12.676575 C2.05673829,12.8557258 1.89284105,13.0764854 1.78136555,13.2493503 L1.78136555,13.2493503 Z" id="Page-1" stroke="none" fill="#FFFFFF" fill-rule="evenodd"></path>
</svg>