<svg width="16px" height="16px" viewBox="0 0 16 16" version="1.1" xmlns="http://www.w3.org/2000/svg" xmlns:xlink="http://www.w3.org/1999/xlink">
    <!-- Generator: Sketch 39.1 (31720) - http://www.bohemiancoding.com/sketch -->
    <desc>Created with Sketch.</desc>
    <defs></defs>
    <path d="M10.1511023,11.700662 C9.04940955,12.4451917 8.01270334,12.8126736 6.40634961,12.8126736 C2.86822522,12.8126736 0,9.944474 0,6.40634961 C0,2.86822522 2.86822522,0 6.40634961,0 C9.944474,0 12.8126992,2.86822522 12.8126992,6.40634961 C12.8126992,7.96832015 12.5419387,8.82274118 11.8843029,10.0041364 L15.0598238,13.452584 C15.2599838,13.652744 15.7193766,14.0815728 14.8760881,14.871768 C14.0327996,15.6619632 13.6136771,15.3352453 13.4135171,15.1350853 L10.1511023,11.700662 Z M10.9300738,6.37589804 C10.9300738,8.89108679 8.89108679,10.9300955 6.37587639,10.9300955 C3.86066598,10.9300955 1.82167897,8.89108679 1.82167897,6.37589804 C1.82167897,3.86068763 3.86066598,1.82167897 6.37587639,1.82167897 C8.89108679,1.82167897 10.9300738,3.86068763 10.9300738,6.37589804 Z" id="search" stroke="none" fill="#C5BCB5" fill-rule="evenodd"></path>
</svg>