
<svg width="16px" height="16px" viewBox="0 0 16 16" version="1.1" xmlns="http://www.w3.org/2000/svg" xmlns:xlink="http://www.w3.org/1999/xlink">
    <!-- Generator: Sketch 39.1 (31720) - http://www.bohemiancoding.com/sketch -->
    <desc>Created with Sketch.</desc>
    <defs></defs>
    <path d="M8.0000125,0 C3.5815306,0 0,3.5815306 0,7.9999875 C0,12.4184694 3.5815306,16 8.0000125,16 C12.4184694,16 16,12.4184694 16,7.9999875 C16,3.5815306 12.4184694,0 8.0000125,0 L8.0000125,0 Z M8.0000125,0.999976562 C11.8598685,0.999976562 14.9999984,4.14013147 14.9999984,7.9999875 C14.9999984,11.8598685 11.8598685,15.0000234 8.0000125,15.0000234 C4.14015647,15.0000234 1.00000156,11.8598685 1.00000156,7.9999875 C1.00000156,4.14013147 4.14015647,0.999976562 8.0000125,0.999976562 L8.0000125,0.999976562 Z M2.5,7.89717808 C2.5,8.44787894 2.9464257,8.89472964 3.49757656,8.89472964 C4.04872742,8.89472964 4.49515312,8.44787894 4.49515312,7.89717808 C4.49515312,7.34682722 4.04872742,6.90000153 3.49757656,6.90000153 C2.9464257,6.90000153 2.5,7.34682722 2.5,7.89717808 L2.5,7.89717808 Z M7,7.89717808 C7,8.44787894 7.4464257,8.89472964 7.99757656,8.89472964 C8.54872742,8.89472964 8.99512812,8.44787894 8.99512812,7.89717808 C8.99512812,7.34682722 8.54872742,6.90000153 7.99757656,6.90000153 C7.4464257,6.90000153 7,7.34682722 7,7.89717808 L7,7.89717808 Z M11.5999985,7.89717808 C11.5999985,8.44787894 12.0464242,8.89472964 12.597575,8.89472964 C13.1487259,8.89472964 13.5951266,8.44787894 13.5951266,7.89717808 C13.5951266,7.34682722 13.1487259,6.90000153 12.597575,6.90000153 C12.0464242,6.90000153 11.5999985,7.34682722 11.5999985,7.89717808 L11.5999985,7.89717808 Z" id="Page-1" stroke="none" fill="#C5BCB5" fill-rule="evenodd"></path>
</svg>