<svg width="16px" height="14px" viewBox="0 -1 16 14" version="1.1" xmlns="http://www.w3.org/2000/svg" xmlns:xlink="http://www.w3.org/1999/xlink">
    <!-- Generator: Sketch 39.1 (31720) - http://www.bohemiancoding.com/sketch -->
    <desc>Created with Sketch.</desc>
    <defs></defs>
    <path d="M3.54751192,6.71756346 L0.262642735,4.9690174 C0.101507264,4.88206373 0.00098192382,4.71467979 7.16294104e-06,4.53212457 C-0.000967597938,4.34949437 0.0976082202,4.18111068 0.256769176,4.09228247 L7.73638433,0.0629709126 C7.88772221,-0.0205336027 8.06980254,-0.0209584984 8.22011567,0.0615212682 L15.7407958,4.08540916 C15.9023311,4.17428736 16.0019067,4.34464556 15.9999572,4.52870041 C15.9980077,4.71320515 15.8950329,4.88161384 15.731498,4.96654301 L15.4801097,5.09931044 L15.4801097,9.12707238 C15.7803361,9.29938011 15.9823865,9.62315068 15.9823865,9.99413467 C15.9823865,10.5462742 15.5347963,10.9938644 14.9826317,10.9938644 C14.4304922,10.9938644 13.982877,10.5462742 13.982877,9.99413467 C13.982877,9.62515019 14.182778,9.30282926 14.480355,9.12984669 L14.480355,5.62738089 L12.4586759,6.69519395 C12.4848945,6.75557913 12.4993659,6.82251271 12.4993659,6.89287045 L12.4993659,11.2316061 C12.4993659,11.3819692 12.4320074,11.5240344 12.3158109,11.6187611 C12.2044883,11.7095389 11.1379249,12.5057435 7.97312626,12.5057435 C4.79718036,12.5057435 3.75838519,11.6631502 3.65001177,11.5669738 C3.54356288,11.4722971 3.48252786,11.3360805 3.48252786,11.1935404 L3.48252786,6.96365309 C3.48252786,6.87405007 3.50604709,6.78999569 3.54751192,6.71756346 L3.54751192,6.71756346 Z M11.4996362,7.20174468 L8.19719629,8.94604178 C8.124989,8.98413244 8.04538353,9.00317777 7.96582805,9.00317777 C7.88429805,9.00317777 7.80229316,8.98313269 7.72858625,8.9431425 L4.4822826,7.2151414 L4.4822826,10.9196576 C4.84991742,11.1100859 5.8662681,11.5059888 7.97312626,11.5059888 C10.0668626,11.5059888 11.1066826,11.1339801 11.4996362,10.9450764 L11.4996362,7.20174468 Z M1.54015435,4.52282685 L7.96972709,7.93703931 L14.4417394,4.51305425 L7.98094934,1.07102362 L1.54015435,4.52282685 Z" id="Page-1" stroke="none" fill="#C5BCB5" fill-rule="evenodd"></path>
</svg>