
<svg width="8px" height="8px" viewBox="9 0 8 8" version="1.1" xmlns="http://www.w3.org/2000/svg" xmlns:xlink="http://www.w3.org/1999/xlink">
    <!-- Generator: Sketch 39.1 (31720) - http://www.bohemiancoding.com/sketch -->
    <desc>Created with Sketch.</desc>
    <defs></defs>
    <path d="M12.5000055,0.995434261 C10.5670509,0.995434261 9,2.55530863 9,4.47943784 C9,6.4037086 10.5670509,7.96347409 12.5000055,7.96347409 C14.4330913,7.96347409 16.0000219,6.4037086 16.0000219,4.47943784 C16.0000219,2.55530863 14.4330913,0.995434261 12.5000055,0.995434261 L12.5000055,0.995434261 Z M12.1783112,6.44245749 L12.7285996,6.44245749 L12.7285996,5.88957533 L12.1783112,5.88957533 L12.1783112,6.44245749 Z M11.9087233,3.59172996 L11.4067131,3.59172996 L11.3985647,3.57576877 C11.3934569,3.29051419 11.4942789,2.9461945 11.7017198,2.77427962 C11.9091499,2.60247362 12.1732034,2.51643997 12.493607,2.51643997 C12.8441654,2.51643997 13.1165533,2.60544593 13.3105192,2.78365383 C13.5047149,2.9616222 13.601665,3.21019652 13.601665,3.52920259 C13.601665,3.75777643 13.5388618,3.96692683 13.413485,4.15652313 C13.2878786,4.34617387 13.1218799,4.54023409 12.915303,4.73862755 C12.8191732,4.83431849 12.7608762,4.92033036 12.7405762,4.99646721 C12.7201449,5.07236452 12.7098964,5.19041854 12.709798,5.35264347 L12.1838565,5.35264347 C12.1855628,5.09576193 12.2077878,4.91768468 12.2505098,4.81836819 C12.2932426,4.71916056 12.405385,4.58807411 12.5869915,4.42498906 C12.7631949,4.21762423 12.8888014,4.05814296 12.9635812,3.9465235 C13.0383501,3.83487138 13.0755267,3.70025735 13.0755267,3.54248544 C13.0755267,3.35470736 13.0253235,3.21019652 12.9247093,3.10921422 C12.8240732,3.00818837 12.6803214,2.95770267 12.493607,2.95770267 C12.3314802,2.95770267 12.1934816,3.00160139 12.0796001,3.08923551 C11.9661343,3.17676076 11.9091061,3.41996751 11.9087233,3.59172996 L11.9087233,3.59172996 Z" id="Page-1" stroke="none" fill="#FFFFFF" fill-rule="evenodd"></path>
</svg>