
<svg width="8px" height="7px" viewBox="0 1 8 7" version="1.1" xmlns="http://www.w3.org/2000/svg" xmlns:xlink="http://www.w3.org/1999/xlink">
    <!-- Generator: Sketch 39.1 (31720) - http://www.bohemiancoding.com/sketch -->
    <desc>Created with Sketch.</desc>
    <defs></defs>
    <path d="M4.08184453,1.99393682 L6.88840722,1.99086852 C7.13004979,1.99086852 7.32594072,2.1325231 7.32594072,2.30727366 L7.32594072,6.73693774 C7.32594072,6.91158547 7.13027948,7.05317677 6.88840722,7.05334288 L4.08184453,7.05641118 C3.84019102,7.05641118 4.19644773,6.5651188 4.3425839,6.5651188 L6.61398482,6.56205051 C6.76017568,6.56205051 6.87862899,6.47636009 6.87862899,6.37066495 C6.87862899,6.37066495 6.88324167,5.23009629 6.88313771,5.16827313 C6.88219793,4.60944136 6.87706506,3.98673554 6.87865097,3.4778556 C6.88023688,2.96897566 6.87865086,2.70287208 6.87865086,2.70287208 C6.87865086,2.59725604 6.76035068,2.51160517 6.61398482,2.5114707 L4.34940891,2.514539 C4.20308681,2.51467347 3.84019102,1.99393682 4.08184453,1.99393682 Z M2.74777818,3.34938769 L3.28184495,2.05466701 C3.35567851,1.96960236 1.67949337,1.96960236 1.60566926,2.05466702 L0,4.5236398 L1.60566926,7.00729279 C1.64258132,7.04983056 3.35567851,7.09236833 3.28184495,7.00729279 L2.74777801,5.67051242 L6.27489214,5.6705125 C6.37937234,5.6705125 6.37955191,3.41752854 6.27489215,3.41732168 L2.74777818,3.34938769 Z" id="Page-1" stroke="none" fill="#3E2311" fill-rule="evenodd"></path>
</svg>