
<svg width="7px" height="8px" viewBox="0 0 7 8" version="1.1" xmlns="http://www.w3.org/2000/svg" xmlns:xlink="http://www.w3.org/1999/xlink">
    <!-- Generator: Sketch 39.1 (31720) - http://www.bohemiancoding.com/sketch -->
    <desc>Created with Sketch.</desc>
    <defs></defs>
    <path d="M6.46752243,0.995434261 L4.2035538,0.995749999 L4.10656032,0.995434261 C3.95831387,0.995434261 3.73400825,0.995434261 3.58757741,1.1413163 L0.129029325,4.58416065 C0.0459264333,4.66688412 0,4.7768373 0,4.89368229 C0,5.01084302 0.0457076839,5.1207962 0.128810575,5.20351966 L2.77282345,7.83501428 C2.85570759,7.91794461 2.96615416,7.96345449 3.08364445,7.96345449 C3.20113475,7.96345449 3.31177818,7.91794461 3.39466233,7.83522114 L6.85333072,4.39225702 C7.00157718,4.24489428 7.00072406,4.03289227 6.99987093,3.82799981 L6.99987093,1.52555906 C6.99987093,1.23328328 6.76104036,0.995434261 6.46752243,0.995434261 L6.46752243,0.995434261 Z M5.25003992,1.86643679 C5.73327919,1.86643679 6.12503746,2.25639551 6.12503746,2.73745021 C6.12503746,3.21848313 5.73327919,3.60844185 5.25003992,3.60844185 C4.76678972,3.60844185 4.37504238,3.21848313 4.37504238,2.73745021 C4.37504238,2.25639551 4.76678972,1.86643679 5.25003992,1.86643679 L5.25003992,1.86643679 Z" id="Page-1" stroke="none" fill="#3E2311" fill-rule="evenodd"></path>
</svg>