
<svg width="7px" height="8px" viewBox="0 0 7 8" version="1.1" xmlns="http://www.w3.org/2000/svg" xmlns:xlink="http://www.w3.org/1999/xlink">
    <!-- Generator: Sketch 39.1 (31720) - http://www.bohemiancoding.com/sketch -->
    <desc>Created with Sketch.</desc>
    <defs></defs>
    <path d="M3.71875581,0.995434261 C3.96157963,0.996936747 4.14271585,1.22068739 4.18018778,1.42752962 L4.30620985,1.99317202 C4.44506163,2.03783287 4.57858684,2.09429586 4.70631517,2.16031814 L5.19873312,1.84805148 C5.37283652,1.72778728 5.66123697,1.69728028 5.83192786,1.86728983 L6.1414596,2.17520146 C6.31215049,2.34531989 6.25490352,2.61070463 6.1414596,2.79114448 L5.837681,3.29491277 C5.9034811,3.42312491 5.96072806,3.55644331 6.00452188,3.69585877 L6.56592276,3.81982474 C6.77443559,3.85725624 7,4.03864331 7,4.27914994 L7,4.71464222 C7,4.95514884 6.7710012,5.10251223 6.56249932,5.15015628 L5.99406562,5.29156415 C5.95152961,5.42083238 5.89855922,5.54523386 5.83746225,5.66475771 L6.1414596,6.16916837 C6.25490352,6.34947757 6.31215049,6.61486231 6.1414596,6.78499162 L5.83192786,7.09292503 C5.66123697,7.26301079 5.37283652,7.23239492 5.19873312,7.11225048 L4.7052761,6.79923258 C4.5790134,6.86428586 4.44720539,6.92001938 4.30984111,6.96424473 L4.18358935,7.53137873 C4.1459971,7.73893954 3.96376713,7.96348498 3.72216832,7.96348498 L3.28466763,7.96348498 C3.04305788,7.96348498 2.89502952,7.73550995 2.84716695,7.52798181 L2.70714485,6.97061396 C2.55793525,6.92362317 2.41491627,6.8630229 2.27850356,6.79137175 L1.77264339,7.11225048 C1.59854,7.23239492 1.31015048,7.26301079 1.13945959,7.09292503 L0.829927859,6.78499162 C0.659236968,6.61486231 0.716483932,6.34947757 0.829927859,6.16916837 L1.14993773,5.63839888 C1.09428765,5.52675764 1.04525476,5.41150173 1.00595626,5.29156415 L0.437500684,5.15015628 C0.229009733,5.10251223 0,4.95514884 0,4.71464222 L0,4.27914994 C0,4.03864331 0.225575352,3.85725624 0.434077241,3.81982474 L0.99537968,3.69585877 C1.03639537,3.56591551 1.08958451,3.4416229 1.14951117,3.32136959 L0.829927859,2.79114448 C0.716374557,2.61070463 0.659127592,2.34531989 0.829927859,2.17520146 L1.13936116,1.86728983 C1.31015048,1.69728028 1.59854,1.72778728 1.77253402,1.84805148 L2.27732231,2.1680701 C2.4128819,2.09695243 2.55515712,2.03676589 2.70340422,1.98978599 L2.84375444,1.43093743 C2.89145296,1.22408431 3.03865006,0.996958522 3.28125513,0.995434261 L3.71875581,0.995434261 Z M3.5029586,5.78797244 C2.77653246,5.78797244 2.18541435,5.20090328 2.18541435,4.47942696 C2.18541435,3.75792885 2.77653246,3.17085969 3.5029586,3.17085969 C4.22939567,3.17085969 4.82052472,3.75792885 4.82052472,4.47942696 C4.82052472,5.20090328 4.22939567,5.78797244 3.5029586,5.78797244 L3.5029586,5.78797244 Z" id="Page-1" stroke="none" fill="#3E2311" fill-rule="evenodd"></path>
</svg>