
<svg width="17px" height="16px" viewBox="0 0 17 16" version="1.1" xmlns="http://www.w3.org/2000/svg" xmlns:xlink="http://www.w3.org/1999/xlink">
    <!-- Generator: Sketch 39.1 (31720) - http://www.bohemiancoding.com/sketch -->
    <desc>Created with Sketch.</desc>
    <defs></defs>
    <path d="M14.78295,0 L9.60815,0.000725 L9.38645,0 C9.0476,0 8.5349,0 8.2002,0.334975 L0.294925,8.24045 C0.104975,8.4304 0,8.682875 0,8.951175 C0,9.2202 0.104475,9.472675 0.294425,9.662625 L6.3379,15.705075 C6.52735,15.8955 6.7798,16 7.04835,16 C7.3169,16 7.5698,15.8955 7.75925,15.70555 L15.6648,7.7998 C16.00365,7.461425 16.0017,6.974625 15.99975,6.50415 L15.99975,1.217275 C15.99975,0.54615 15.45385,0 14.78295,0 L14.78295,0 Z M12.000125,2 C13.104675,2 14.000125,2.895425 14.000125,4.000025 C14.000125,5.104575 13.104675,6 12.000125,6 C10.89555,6 10.000125,5.104575 10.000125,4.000025 C10.000125,2.895425 10.89555,2 12.000125,2 L12.000125,2 Z" id="Page-1" stroke="none" fill="#F2E8E8" fill-rule="evenodd"></path>
</svg>