
<svg width="17px" height="16px" viewBox="6 0 17 16" version="1.1" xmlns="http://www.w3.org/2000/svg" xmlns:xlink="http://www.w3.org/1999/xlink">
    <!-- Generator: Sketch 39.1 (31720) - http://www.bohemiancoding.com/sketch -->
    <desc>Created with Sketch.</desc>
    <defs></defs>
    <path d="M12.5,1.999975 L16.5,6.000225 L16.5,15 C16.5,15.55085 16.0545,15.99775 15.5,16 L7.000025,16 C6.44775,16 6,15.55225 6,15 L6,2.999975 C6,2.449125 6.4455,2.002225 7.000025,1.999975 L12.5,1.999975 Z M11.500025,2.999975 L7.000025,2.999975 L7.000025,15 L15.5,15 L15.5,6.999975 L11.500025,6.999975 L11.500025,2.999975 Z M21,14 L17.500025,14 L17.500025,12.999975 L21,12.999975 L21,5 L17,5 L17,1 L11.5,1 C11.5,0.44775 11.94775,0 12.5,0 L18,0 L22,4.000225 L22,12.999975 C22,13.55085 21.5545,13.99775 21,14 L21,14 Z M12.5,3.4141 L12.5,5.999975 L15.0855,5.999975 L12.5,3.4141 Z M18,1.4141 L18,4 L20.5855,4 L18,1.4141 Z" id="Page-1" stroke="none" fill="#C5BCB5" fill-rule="evenodd"></path>
</svg>