
<svg width="13px" height="13px" viewBox="186 6 13 13" version="1.1" xmlns="http://www.w3.org/2000/svg" xmlns:xlink="http://www.w3.org/1999/xlink">
    <!-- Generator: Sketch 39.1 (31720) - http://www.bohemiancoding.com/sketch -->
    <desc>Created with Sketch.</desc>
    <defs></defs>
    <path d="M193.56014,14.6148071 C192.906392,15.1448517 192.014585,15.3360496 190.808806,15.3360496 C188.152979,15.3360496 186,13.2461147 186,10.6680342 C186,8.08995358 188.152979,6 190.808806,6 C193.464632,6 195.617612,8.08995358 195.617612,10.6680342 C195.617612,11.8061756 195.198015,12.8491638 194.500603,13.6575366 L198.238892,17.3088916 C198.389138,17.4547396 198.537383,17.8695068 198.345866,18.2045898 C198.154349,18.5396729 197.633055,18.3504379 197.482809,18.2045898 L193.56014,14.6148071 Z M190.959168,7.67889386 C192.671249,7.67889386 194.059168,9.06682483 194.059168,10.7789011 C194.059168,12.4909627 192.671249,13.8788937 190.959168,13.8788937 C189.247088,13.8788937 187.859169,12.4909627 187.859169,10.7789011 C187.859169,9.06682483 189.247088,7.67889386 190.959168,7.67889386 L190.959168,7.67889386 Z" id="Page-1" stroke="none" fill="#4D301D" fill-rule="evenodd"></path>
</svg>