
<svg width="8px" height="8px" viewBox="0 0 8 8" version="1.1" xmlns="http://www.w3.org/2000/svg" xmlns:xlink="http://www.w3.org/1999/xlink">
    <!-- Generator: Sketch 39.1 (31720) - http://www.bohemiancoding.com/sketch -->
    <desc>Created with Sketch.</desc>
    <defs></defs>
    <path d="M0.671156801,4.4852068 L0.376887026,4.7904445 C0.292981942,4.87768173 0.154570294,4.88003508 0.0673488465,4.79681815 C-0.0198726009,4.713416 -0.0227621055,4.57551645 0.0609350219,4.48871503 L3.36405469,1.06247194 C3.40540525,1.01958874 3.4623854,0.995434261 3.52201427,0.995434261 C3.58166503,0.995434261 3.63864518,1.01958874 3.67999575,1.06247194 L6.96593161,4.48882398 C7.04950834,4.5756363 7.04672829,4.7136339 6.95951779,4.79681815 C6.91718217,4.83748963 6.8624567,4.85749307 6.80795014,4.85767829 C6.75044462,4.85767829 6.6929391,4.83513629 6.64996866,4.7906624 L6.35591779,4.48395386 L6.35591779,7.74557167 C6.35591779,7.8647534 6.26007161,7.96141491 6.13701593,7.96347409 L4.60835855,7.96347409 C4.48737149,7.96347409 4.38945668,7.86602813 4.38945668,7.74557167 L4.38945668,5.56960906 L2.64519191,5.56960906 L2.63823083,7.74622538 C2.63782586,7.86517831 2.54195779,7.96142581 2.41932897,7.96347409 L0.890058664,7.96347409 C0.76917011,7.96347409 0.671156801,7.86602813 0.671156801,7.74557167 L0.671156801,4.4852068 Z" id="Page-1" stroke="none" fill="#3E2311" fill-rule="evenodd"></path>
</svg>