<svg width="16px" height="16px" viewBox="0 0 16 16" version="1.1" xmlns="http://www.w3.org/2000/svg" xmlns:xlink="http://www.w3.org/1999/xlink">
    <!-- Generator: Sketch 39.1 (31720) - http://www.bohemiancoding.com/sketch -->
    <desc>Created with Sketch.</desc>
    <defs></defs>
    <path d="M8,16 C12.418278,16 16,12.418278 16,8 C16,3.581722 12.418278,0 8,0 C3.581722,0 0,3.581722 0,8 C0,12.418278 3.581722,16 8,16 Z M14.7106576,6.00180266 C13.8506853,3.10938744 11.1716796,1 8,1 C4.82644085,1 2.14613963,3.11188828 1.28781547,6.00694573 C2.80890789,6.00694561 12.9280488,6.00694561 14.7106576,6.00180266 Z M14.712843,10.0051431 C13.8528708,12.8975583 11.173865,15.0069457 8.00218544,15.0069457 C4.82862629,15.0069457 2.14832507,12.8950574 1.29000092,10 C2.81109333,10.0000001 12.9302342,10.0000001 14.712843,10.0051431 Z M2.216,6.858 L2.216,9 L2.462,9 L2.462,8.124 L3.089,8.124 C3.581,8.124 3.83,7.911 3.83,7.488 C3.83,7.068 3.584,6.858 3.092,6.858 L2.216,6.858 Z M2.462,7.071 L3.077,7.071 C3.248,7.071 3.374,7.104 3.458,7.176 C3.542,7.239 3.584,7.344 3.584,7.488 C3.584,7.632 3.542,7.737 3.461,7.806 C3.377,7.875 3.251,7.911 3.077,7.911 L2.462,7.911 L2.462,7.071 Z M6.18899996,6.858 L5.34599996,9 L5.60999996,9 L5.83799996,8.4 L6.82199996,8.4 L7.04999996,9 L7.31699996,9 L6.47399996,6.858 L6.18899996,6.858 Z M5.91599996,8.193 L6.32699996,7.122 L6.33899996,7.122 L6.74399996,8.193 L5.91599996,8.193 Z M9.67299991,6.816 C9.45099991,6.816 9.26799991,6.864 9.12699991,6.96 C8.96799991,7.062 8.88999991,7.209 8.88999991,7.395 C8.88999991,7.575 8.97099991,7.713 9.13599991,7.809 C9.20499991,7.845 9.36999991,7.905 9.62799991,7.983 C9.86799991,8.052 10.0209999,8.103 10.0809999,8.139 C10.2219999,8.214 10.2939999,8.319 10.2939999,8.454 C10.2939999,8.568 10.2399999,8.658 10.1319999,8.724 C10.0239999,8.79 9.87999991,8.823 9.70599991,8.823 C9.51399991,8.823 9.36999991,8.781 9.27099991,8.703 C9.16299991,8.616 9.09699991,8.478 9.07599991,8.292 L8.83299991,8.292 C8.85099991,8.556 8.94399991,8.751 9.11199991,8.88 C9.25599991,8.988 9.45399991,9.042 9.70599991,9.042 C9.96099991,9.042 10.1619999,8.988 10.3119999,8.883 C10.4619999,8.775 10.5369999,8.625 10.5369999,8.439 C10.5369999,8.244 10.4469999,8.094 10.2699999,7.986 C10.1799999,7.932 9.99399991,7.863 9.71199991,7.779 C9.50499991,7.719 9.37299991,7.674 9.31899991,7.644 C9.19599991,7.578 9.13599991,7.491 9.13599991,7.383 C9.13599991,7.26 9.18699991,7.17 9.28899991,7.11 C9.37899991,7.056 9.50199991,7.032 9.66099991,7.032 C9.83499991,7.032 9.96999991,7.068 10.0659999,7.146 C10.1589999,7.221 10.2189999,7.335 10.2459999,7.491 L10.4889999,7.491 C10.4679999,7.266 10.3869999,7.095 10.2429999,6.981 C10.1049999,6.87 9.91299991,6.816 9.67299991,6.816 Z M12.9889999,6.816 C12.7669999,6.816 12.5839999,6.864 12.4429999,6.96 C12.2839999,7.062 12.2059999,7.209 12.2059999,7.395 C12.2059999,7.575 12.2869999,7.713 12.4519999,7.809 C12.5209999,7.845 12.6859999,7.905 12.9439999,7.983 C13.1839999,8.052 13.3369999,8.103 13.3969999,8.139 C13.5379999,8.214 13.6099999,8.319 13.6099999,8.454 C13.6099999,8.568 13.5559999,8.658 13.4479999,8.724 C13.3399999,8.79 13.1959999,8.823 13.0219999,8.823 C12.8299999,8.823 12.6859999,8.781 12.5869999,8.703 C12.4789999,8.616 12.4129999,8.478 12.3919999,8.292 L12.1489999,8.292 C12.1669999,8.556 12.2599999,8.751 12.4279999,8.88 C12.5719999,8.988 12.7699999,9.042 13.0219999,9.042 C13.2769999,9.042 13.4779999,8.988 13.6279999,8.883 C13.7779999,8.775 13.8529999,8.625 13.8529999,8.439 C13.8529999,8.244 13.7629999,8.094 13.5859999,7.986 C13.4959999,7.932 13.3099999,7.863 13.0279999,7.779 C12.8209999,7.719 12.6889999,7.674 12.6349999,7.644 C12.5119999,7.578 12.4519999,7.491 12.4519999,7.383 C12.4519999,7.26 12.5029999,7.17 12.6049999,7.11 C12.6949999,7.056 12.8179999,7.032 12.9769999,7.032 C13.1509999,7.032 13.2859999,7.068 13.3819999,7.146 C13.4749999,7.221 13.5349999,7.335 13.5619999,7.491 L13.8049999,7.491 C13.7839999,7.266 13.7029999,7.095 13.5589999,6.981 C13.4209999,6.87 13.2289999,6.816 12.9889999,6.816 Z" id="Combined-Shape" stroke="none" fill="#C5BCB5" fill-rule="evenodd"></path>
</svg>