
<svg width="150px" height="19px" viewBox="342 478 150 19" version="1.1" xmlns="http://www.w3.org/2000/svg" xmlns:xlink="http://www.w3.org/1999/xlink">
    <!-- Generator: Sketch 39.1 (31720) - http://www.bohemiancoding.com/sketch -->
    <desc>Created with Sketch.</desc>
    <defs></defs>
    <g id="Group-8" stroke="none" stroke-width="1" fill="none" fill-rule="evenodd" transform="translate(342.000000, 478.000000)">
        <g id="Group-7" fill="#4D301D">
            <path d="M4.42241379,5.98448276 C3.22758621,5.98448276 2.28103448,6.40344828 1.59827586,7.25689655 C0.962068966,8.03275862 0.651724138,9.02586207 0.651724138,10.2517241 C0.651724138,11.4775862 0.962068966,12.4706897 1.59827586,13.2310345 C2.26551724,14.037931 3.19655172,14.4413793 4.40689655,14.4413793 C5.4,14.4413793 6.19137931,14.1775862 6.79655172,13.6655172 C7.41724138,13.137931 7.80517241,12.3465517 7.99137931,11.3224138 L6.75,11.3224138 C6.5637931,12.7034483 5.77241379,13.4017241 4.40689655,13.4017241 C3.6,13.4017241 2.97931034,13.1068966 2.56034483,12.5482759 C2.12586207,11.9896552 1.92413793,11.2137931 1.92413793,10.2362069 C1.92413793,9.25862069 2.14137931,8.48275862 2.57586207,7.90862069 C3.02586207,7.31896552 3.64655172,7.02413793 4.42241379,7.02413793 C5.05862069,7.02413793 5.57068966,7.1637931 5.97413793,7.47413793 C6.36206897,7.78448276 6.61034483,8.25 6.71896552,8.87068966 L7.94482759,8.87068966 C7.80517241,7.89310345 7.43275862,7.1637931 6.81206897,6.68275862 C6.20689655,6.21724138 5.41551724,5.98448276 4.42241379,5.98448276 L4.42241379,5.98448276 Z M13.2844828,5.98448276 C12.0741379,5.98448276 11.1275862,6.38793103 10.4137931,7.22586207 C9.73103448,8.01724138 9.38965517,9.01034483 9.38965517,10.2206897 C9.38965517,11.4155172 9.73103448,12.4086207 10.4137931,13.1844828 C11.1275862,14.0224138 12.0741379,14.4413793 13.2844828,14.4413793 C14.4793103,14.4413793 15.4413793,14.0224138 16.1706896,13.1844828 C16.837931,12.4086207 17.1793103,11.4155172 17.1793103,10.2206897 C17.1793103,9.01034483 16.837931,8.01724138 16.1551724,7.22586207 C15.4413793,6.38793103 14.4793103,5.98448276 13.2844828,5.98448276 L13.2844828,5.98448276 Z M13.2844828,7.02413793 C14.1224138,7.02413793 14.7896552,7.35 15.2862069,8.00172414 C15.7051724,8.59137931 15.9224138,9.32068966 15.9224138,10.2206897 C15.9224138,11.0896552 15.7051724,11.8344828 15.2862069,12.4241379 C14.7896552,13.0758621 14.1224138,13.4017241 13.2844828,13.4017241 C12.4310345,13.4017241 11.7637931,13.0758621 11.2982759,12.4241379 C10.8637931,11.8344828 10.662069,11.1051724 10.662069,10.2206897 C10.662069,9.32068966 10.8637931,8.59137931 11.2982759,8.00172414 C11.7637931,7.35 12.4310345,7.02413793 13.2844828,7.02413793 L13.2844828,7.02413793 Z M22.8758621,5.98448276 C21.6655172,5.98448276 20.7810345,6.49655172 20.2068965,7.52068966 L20.2068965,6.20172414 L19.0431034,6.20172414 L19.0431034,17.2965517 L20.2844827,17.2965517 L20.2844827,12.7655172 C20.9051724,13.8827586 21.7896552,14.4413793 22.937931,14.4413793 C24.0862069,14.4413793 24.9706896,14.0068966 25.6224138,13.1689655 C26.212069,12.3931034 26.5224138,11.4155172 26.5224138,10.2362069 C26.5224138,9.02586207 26.212069,8.04827586 25.6068965,7.27241379 C24.9396552,6.40344828 24.0241379,5.98448276 22.8758621,5.98448276 L22.8758621,5.98448276 Z M22.7206896,7.00862069 C23.5741379,7.00862069 24.2258621,7.31896552 24.6758621,7.97068966 C25.0482758,8.52931034 25.25,9.28965517 25.25,10.2362069 C25.25,11.1982759 25.0482758,11.9586207 24.6448276,12.5172414 C24.1948276,13.1068966 23.5431034,13.4172414 22.6741379,13.4172414 C21.9293103,13.4172414 21.3551724,13.1224138 20.9206896,12.5637931 C20.4551724,11.9896552 20.237931,11.2448276 20.237931,10.3137931 L20.237931,10.1586207 C20.237931,9.25862069 20.4396552,8.5137931 20.8431034,7.95517241 C21.2775862,7.31896552 21.9137931,7.00862069 22.7206896,7.00862069 L22.7206896,7.00862069 Z M27.5017241,6.20172414 L30.6827586,14.037931 L29.3017241,17.2965517 L30.6517241,17.2965517 L35.0431034,6.20172414 L33.6775862,6.20172414 L31.3034483,12.5327586 L28.8517241,6.20172414 L27.5017241,6.20172414 Z M39.8551724,5.98448276 C39.2965517,5.98448276 38.8155172,6.15517241 38.3965517,6.49655172 C38.0551724,6.76034483 37.775862,7.13275862 37.5586207,7.59827586 L37.5586207,6.20172414 L36.3327586,6.20172414 L36.3327586,14.2241379 L37.5586207,14.2241379 L37.5586207,9.97241379 C37.5586207,9.22758621 37.7603448,8.59137931 38.1948276,8.0637931 C38.6137931,7.50517241 39.1413793,7.24137931 39.7620689,7.24137931 C40.15,7.24137931 40.5534482,7.28793103 40.9568965,7.41206897 L40.9568965,6.17068966 C40.6620689,6.04655172 40.2896551,5.98448276 39.8551724,5.98448276 L39.8551724,5.98448276 Z M43.2706896,3.17586207 C43.0068965,3.17586207 42.7896551,3.25344828 42.6034482,3.43965517 C42.4172413,3.59482759 42.3396551,3.81206897 42.3396551,4.09137931 C42.3396551,4.35517241 42.4172413,4.57241379 42.6034482,4.75862069 C42.7896551,4.92931034 43.0068965,5.02241379 43.2706896,5.02241379 C43.5344827,5.02241379 43.7517241,4.92931034 43.937931,4.75862069 C44.1241379,4.57241379 44.2172413,4.35517241 44.2172413,4.09137931 C44.2172413,3.81206897 44.1241379,3.59482759 43.937931,3.43965517 C43.7517241,3.25344828 43.5344827,3.17586207 43.2706896,3.17586207 L43.2706896,3.17586207 Z M42.65,6.20172414 L42.65,14.2241379 L43.8913793,14.2241379 L43.8913793,6.20172414 L42.65,6.20172414 Z M49.7741379,5.98448276 C48.6568965,5.98448276 47.7724137,6.37241379 47.1206896,7.1637931 C46.4689655,7.90862069 46.1586206,8.85517241 46.1586206,10.0344828 C46.1586206,11.1982759 46.4689655,12.1448276 47.1206896,12.8896552 C47.7724137,13.65 48.6568965,14.037931 49.7741379,14.037931 C50.9844827,14.037931 51.8844827,13.4948276 52.4741379,12.4241379 L52.4741379,13.8362069 C52.4741379,15.6051724 51.6672413,16.5051724 50.0534482,16.5051724 C49.3241379,16.5051724 48.7810344,16.3655172 48.4241379,16.1017241 C48.0672413,15.8534483 47.8344827,15.45 47.7413793,14.9068966 L46.5,14.9068966 C46.6396551,15.7758621 46.9965517,16.4275862 47.5706896,16.862069 C48.1293103,17.2965517 48.9672413,17.5137931 50.0534482,17.5137931 C52.4896551,17.5137931 53.7155172,16.2258621 53.7155172,13.6655172 L53.7155172,6.20172414 L52.4741379,6.20172414 L52.4741379,7.58275862 C51.8844827,6.51206897 50.9844827,5.98448276 49.7741379,5.98448276 L49.7741379,5.98448276 Z M49.9603448,7.00862069 C50.7517241,7.00862069 51.3724137,7.28793103 51.837931,7.87758621 C52.2724137,8.40517241 52.4896551,9.13448276 52.4896551,10.0344828 C52.4896551,10.9034483 52.2724137,11.6172414 51.837931,12.1603448 C51.3724137,12.7189655 50.7517241,12.9982759 49.9448275,12.9982759 C49.075862,12.9982759 48.4396551,12.687931 48.0051724,12.0982759 C47.6172413,11.5706897 47.4310344,10.8724138 47.4310344,10.0344828 C47.4310344,9.13448276 47.6482758,8.40517241 48.0827586,7.87758621 C48.5327586,7.28793103 49.1534482,7.00862069 49.9603448,7.00862069 L49.9603448,7.00862069 Z M55.8896551,2.92758621 L55.8896551,14.2241379 L57.1310344,14.2241379 L57.1310344,9.64655172 C57.1310344,8.90172414 57.3327586,8.26551724 57.7517241,7.76896552 C58.1551724,7.27241379 58.6672413,7.02413793 59.287931,7.02413793 C59.9551724,7.02413793 60.4672413,7.22586207 60.8396551,7.62931034 C61.1810344,8.03275862 61.3672413,8.60689655 61.3672413,9.35172414 L61.3672413,14.2241379 L62.6086206,14.2241379 L62.6086206,9.16551724 C62.6086206,8.14137931 62.3603448,7.35 61.8637931,6.80689655 C61.3672413,6.24827586 60.637931,5.98448276 59.7068965,5.98448276 C59.1637931,5.98448276 58.6827586,6.10862069 58.2482758,6.35689655 C57.7827586,6.62068966 57.4103448,7.00862069 57.1310344,7.52068966 L57.1310344,2.92758621 L55.8896551,2.92758621 Z M66.9086206,3.61034483 L65.6827586,4.12241379 L65.6827586,6.20172414 L64.0689655,6.20172414 L64.0689655,7.24137931 L65.6827586,7.24137931 L65.6827586,12.3465517 C65.6827586,12.9517241 65.8068965,13.4017241 66.0706896,13.712069 C66.3499999,14.0534483 66.8310344,14.2241379 67.4827586,14.2241379 L68.6931034,14.2241379 L68.6931034,13.1844828 L67.6689655,13.1844828 C67.3896551,13.1844828 67.187931,13.1068966 67.0793103,12.9827586 C66.9551724,12.8586207 66.9086206,12.6413793 66.9086206,12.3465517 L66.9086206,7.24137931 L68.8948275,7.24137931 L68.8948275,6.20172414 L66.9086206,6.20172414 L66.9086206,3.61034483 Z" id="copyright®"></path>
            <text id="®" font-family="LucidaGrande, Lucida Grande" font-size="6" font-weight="normal" letter-spacing="0.0966666639">
                <tspan x="71.1206897" y="6">®</tspan>
            </text>
        </g>
        <text id="学生信息中心" font-family="PingFangSC-Light, PingFang SC" font-size="9" font-weight="300" letter-spacing="0.144999996" fill="#4D301D">
            <tspan x="78.8793103" y="11.2931034">学生信息中心</tspan>
        </text>
    </g>
</svg>