
<svg width="2000px" height="600px" viewBox="0 1 2000 600" version="1.1" xmlns="http://www.w3.org/2000/svg" xmlns:xlink="http://www.w3.org/1999/xlink">
    <!-- Generator: Sketch 39.1 (31720) - http://www.bohemiancoding.com/sketch -->
    <desc>Created with Sketch.</desc>
    <defs></defs>
    <rect id="Rectangle" stroke="none" fill="#4D2F1C" fill-rule="evenodd" x="0" y="1" width="2000" height="60"></rect>
    <g id="hair" stroke="none" stroke-width="1" fill="none" fill-rule="evenodd" transform="translate(0.000000, 59.000000)">
        <path d="M0,1 L2000,1 L2000,109.595917 C2000,109.595917 1624.66476,81.6415482 1382.01324,1 C550.223694,125.925865 0,55.4702568 0,55.4702568 L0,1 Z" id="Rectangle-2" fill="#4D301D"></path>
        <path d="M1270.58182,74.3988683 C1306.38289,68.945447 1364.03227,58.3995933 1417.43479,30.8998214 C1311.02801,60.672797 1308.47542,57.7694488 1290.75859,60.672797 C1273.04176,63.5761453 1143.63054,81.5332727 979.662616,54.4589882 C1122.23366,86.8215319 1248.87323,77.7056427 1270.58182,74.3988683 Z" id="Oval-4" fill="#2B1609" opacity="0.42473181" transform="translate(1198.548702, 54.518631) rotate(-21.000000) translate(-1198.548702, -54.518631) "></path>
        <path d="M1265.58182,69.3988683 C1301.38289,63.945447 1359.03227,53.3995933 1412.43479,25.8998214 C1306.02801,55.672797 1303.47542,52.7694488 1285.75859,55.672797 C1268.04176,58.5761453 1138.63054,76.5332727 974.662616,49.4589882 C1117.23366,81.8215319 1243.87323,72.7056427 1265.58182,69.3988683 Z" id="Oval-4" fill="#4D301D" transform="translate(1193.548702, 49.518631) rotate(-18.000000) translate(-1193.548702, -49.518631) "></path>
    </g>
    <path d="M0,371 C0,371 246.067455,550.514218 1000,539.263291 C1699.95697,528.817841 2000,371 2000,371 L2000,600.378882 L0,600.378882 L0,371 Z" id="Rectangle-3" stroke="none" fill="#3F200B" fill-rule="evenodd" opacity="0.3"></path>
    <path d="M0,371 C0,371 241.810856,559.461378 1000,559.461379 C1801.62292,559.46138 2000,485.689438 2000,485.689438 L2000,600.378882 L0,600.378882 L0,371 Z" id="Rectangle-3" stroke="none" fill="#4D301D" fill-rule="evenodd"></path>
</svg>