
<svg width="84px" height="35px" viewBox="733 19 84 35" version="1.1" xmlns="http://www.w3.org/2000/svg" xmlns:xlink="http://www.w3.org/1999/xlink">
    <!-- Generator: Sketch 39.1 (31720) - http://www.bohemiancoding.com/sketch -->
    <desc>Created with Sketch.</desc>
    <defs>
        <ellipse id="path-1" cx="14.2222222" cy="14.2222222" rx="14.2222222" ry="14.2222222"></ellipse>
        <filter x="-50%" y="-50%" width="200%" height="200%" filterUnits="objectBoundingBox" id="filter-2">
            <feOffset dx="0" dy="0" in="SourceAlpha" result="shadowOffsetOuter1"></feOffset>
            <feGaussianBlur stdDeviation="1.5" in="shadowOffsetOuter1" result="shadowBlurOuter1"></feGaussianBlur>
            <feColorMatrix values="0 0 0 0 0   0 0 0 0 0   0 0 0 0 0  0 0 0 0.5 0" type="matrix" in="shadowBlurOuter1"></feColorMatrix>
        </filter>
    </defs>
    <g id="Group-2" stroke="none" stroke-width="1" fill="none" fill-rule="evenodd" transform="translate(733.000000, 22.000000)">
        <path d="M3.84,14.144 L3.84,19.1146667 L15.488,19.1146667 L15.488,14.144 L3.84,14.144 Z M14.3146667,18.0693333 L5.01333333,18.0693333 L5.01333333,15.168 L14.3146667,15.168 L14.3146667,18.0693333 Z M5.504,19.776 L4.416,20.1813333 C5.184,20.992 5.824,21.8666667 6.336,22.8053333 L0.512,22.8053333 L0.512,23.9146667 L18.688,23.9146667 L18.688,22.8053333 L13.0986667,22.8053333 C13.7386667,21.9946667 14.2933333,21.056 14.8053333,20.032 L13.7173333,19.6266667 C13.2053333,20.7573333 12.5866667,21.824 11.8826667,22.8053333 L7.50933333,22.8053333 C6.912,21.632 6.25066667,20.6293333 5.504,19.776 L5.504,19.776 Z M2.06933333,8.10666667 L1.28,8.85333333 C2.47466667,9.70666667 3.49866667,10.5173333 4.33066667,11.3066667 C3.11466667,12.2453333 1.664,13.056 0,13.76 L0.704,14.6773333 C2.83733333,13.7813333 4.608,12.6506667 6.05866667,11.3066667 L6.05866667,12.0746667 L13.7813333,12.0746667 L13.7813333,11.1146667 C15.168,12.4373333 16.8533333,13.632 18.816,14.6773333 L19.584,13.824 C18.176,13.12 16.9173333,12.3306667 15.808,11.4346667 C16.8746667,10.6666667 17.8133333,9.77066667 18.624,8.74666667 L17.792,8 C17.024,9.024 16.0853333,9.94133333 14.976,10.752 C14.2933333,10.1546667 13.696,9.536 13.1413333,8.87466667 C14.2506667,8.10666667 15.2106667,7.25333333 15.9786667,6.272 L15.1466667,5.52533333 C14.4213333,6.464 13.5253333,7.31733333 12.5013333,8.04266667 C11.8826667,7.18933333 11.3493333,6.29333333 10.9226667,5.33333333 L9.96266667,5.888 C10.8373333,7.76533333 12.0746667,9.45066667 13.6533333,10.9866667 L6.37866667,10.9866667 C7.57333333,9.792 8.49066667,8.448 9.152,6.912 L9.152,6.03733333 L2.19733333,6.03733333 L2.19733333,7.12533333 L7.85066667,7.12533333 C7.18933333,8.40533333 6.29333333,9.57866667 5.14133333,10.624 C4.288,9.792 3.264,8.96 2.06933333,8.10666667 L2.06933333,8.10666667 Z M24.3437037,6.016 L24.3437037,7.08266667 L35.2877037,7.08266667 L35.2877037,9.55733333 L25.069037,9.55733333 L25.069037,10.5813333 L35.2877037,10.5813333 L35.2877037,12.9706667 L22.2317037,12.9706667 L22.2317037,14.0586667 L30.5943704,14.0586667 L30.5943704,16.8533333 C28.1837037,19.1573333 25.325037,21.0986667 22.0183704,22.6986667 L22.4877037,23.7653333 C25.645037,22.1013333 28.3543704,20.2026667 30.5943704,18.0906667 L30.5943704,22.6133333 C30.5943704,23.2533333 30.3383704,23.5946667 29.8263704,23.5946667 C29.101037,23.5946667 28.3543704,23.552 27.5437037,23.5093333 L27.7997037,24.5973333 L30.2317037,24.5973333 C31.2343704,24.5973333 31.7463704,24.0213333 31.7463704,22.8906667 L31.7463704,17.984 C33.7517037,20.3306667 36.461037,22.2933333 39.8743704,23.872 L40.4717037,22.8693333 C38.125037,21.8453333 36.077037,20.608 34.349037,19.2 C35.9703704,18.3466667 37.3783704,17.1306667 38.5943704,15.5306667 L37.6983704,14.784 C36.5463704,16.4266667 35.1597037,17.6853333 33.581037,18.5386667 C32.9197037,17.9413333 32.301037,17.3226667 31.7463704,16.64 L31.7463704,14.0586667 L40.3863704,14.0586667 L40.3863704,12.9706667 L36.461037,12.9706667 L36.461037,6.016 L24.3437037,6.016 Z M24.3437037,15.1253333 L23.5543704,15.872 C24.9623704,16.8533333 26.0717037,17.7706667 26.9037037,18.6453333 L27.6717037,17.8773333 C26.7757037,16.9813333 25.6663704,16.064 24.3437037,15.1253333 L24.3437037,15.1253333 Z" id="登录" fill="#FFFFFF"></path>
        <g id="Group" transform="translate(51.555556, 0.000000)">
            <g id="Oval">
                <use fill="black" fill-opacity="1" filter="url(#filter-2)" xlink:href="#path-1"></use>
                <use fill="#FFFFFF" fill-rule="evenodd" xlink:href="#path-1"></use>
            </g>
            <path d="M14.3557178,6.62785933 C16.2313942,6.62785933 18.2205998,8.20765825 18.2205998,9.38702567 L18.2205998,12.147269 C18.2205998,13.2095448 17.7788548,15.2422179 16.5938537,16.1752785 C16.2917903,16.4131901 16.1348211,16.7912803 16.1801666,17.1731538 C16.2254567,17.5556073 16.4665441,17.8861981 16.8160518,18.0469506 L21.6229696,20.3263448 C21.6604997,20.3434943 22.0836039,20.4147159 22.0836039,21.005449 L22.0841562,22.0836315 L6.62783172,22.0841562 L6.62783172,20.9633346 C6.62783172,20.5243789 6.95751111,20.3863543 7.08899072,20.3258201 L11.9398455,18.0367051 C12.2874753,17.8770572 12.5275133,17.5480406 12.5741843,17.168321 C12.6210762,16.7886015 12.467918,16.4115883 12.1693894,16.1721027 C11.0218356,15.2508341 10.4873286,13.2257277 10.4873286,12.147269 L10.4873286,9.38702567 C10.4873286,8.23303732 12.4965005,6.62785933 14.3557178,6.62785933 L14.3557178,6.62785933 Z" id="loginMan" fill="#1B1B1B"></path>
        </g>
    </g>
</svg>