
<svg width="300px" height="111px" viewBox="122 216 300 111" version="1.1" xmlns="http://www.w3.org/2000/svg" xmlns:xlink="http://www.w3.org/1999/xlink">
    <!-- Generator: Sketch 39.1 (31720) - http://www.bohemiancoding.com/sketch -->
    <desc>Created with Sketch.</desc>
    <defs></defs>
    <g id="student-center3" stroke="none" stroke-width="1" fill="none" fill-rule="evenodd" transform="translate(126.000000, 226.000000)">
        <g id="SC">
            <path d="M54.6285163,32.4461117 C54.4276959,30.7807523 54.3282134,29.0280072 54.3282134,27.1878765 C54.3282134,19.4407934 56.2318974,13.1554241 60.1857027,8.25868291 C64.5788197,2.70417051 70.8756207,0 79.222543,0 C85.2996882,0 90.3517727,1.53479948 94.305578,4.75056981 C98.112946,7.82016877 100.455942,12.0591388 101.261347,17.3213084 L93.5001732,17.3213084 C92.6215498,13.8131953 90.9375216,11.1821105 88.4480887,9.50113963 C85.9586557,7.82016877 82.8834738,7.01622619 79.0761058,7.01622619 C73.4382723,7.01622619 69.1915925,8.91645411 66.3360665,12.7899957 C63.6269777,16.2981087 62.3090426,21.1217642 62.3090426,27.1878765 C62.3090426,33.4732458 63.6269777,38.2969013 66.2628479,41.7319287 C69.0451553,45.3862131 73.3650537,47.2133554 79.222543,47.2133554 C83.0299111,47.2133554 86.2515302,46.2632414 88.7409631,44.3630135 C91.3768333,42.3166142 93.2072987,39.2470152 94.2323594,35.1542166 L101.993533,35.1542166 C100.822035,41.2203288 98.112946,45.9708987 93.7930477,49.4059261 C89.7660238,52.6216964 84.9335951,54.2295816 79.2957616,54.2295816 C75.5273454,54.2295816 72.1698162,53.6921553 69.2231742,52.6297454 C67.5104294,49.100949 61.904453,38.3335095 54.6285163,32.4461117 Z" id="Combined-Shape" fill="#40220E" opacity="0.295767257"></path>
            <path d="M21.4843389,2.46498098 C15.8539605,2.46498098 11.186673,3.72212128 7.48247666,6.23640188 C3.55602851,8.89858134 1.6298464,12.5221034 1.6298464,17.1809174 C1.6298464,21.7657821 3.63011244,25.3153547 7.70472845,27.7556858 C9.33457485,28.643079 13.3351069,30.0481181 19.8544925,32.1187022 C25.7071228,33.8934885 29.1890674,35.0766793 30.3744102,35.6682748 C33.708187,37.3691117 35.4121173,39.661544 35.4121173,42.6195211 C35.4121173,44.9859029 34.2267744,46.8346386 31.8560888,48.1657284 C29.4854031,49.4968181 26.2997942,50.2363124 22.2992621,50.2363124 C17.8542265,50.2363124 14.5945337,49.4228687 12.4460998,47.7959812 C10.0754141,46.0211949 8.59373558,42.9892683 8.00106416,38.8481002 L0,38.8481002 C0.444503564,45.5035489 2.81518924,50.3842112 7.18614096,53.4900873 C10.8162534,56.0043679 15.8539605,57.3354576 22.2992621,57.3354576 C28.9668156,57.3354576 34.1526905,56.0043679 37.8568869,53.3421884 C41.5610833,50.6060595 43.4131814,46.9085881 43.4131814,42.1758246 C43.4131814,37.2951622 41.1165797,33.5237413 36.5974601,30.7876124 C34.5231102,29.5304721 29.8558227,27.8296353 22.7437657,25.6111524 C17.7801426,24.1321638 14.7427015,23.0229224 13.5573587,22.3573775 C10.8903373,20.9523383 9.63091056,19.1036026 9.63091056,16.7372209 C9.63091056,14.0750414 10.7421695,12.1523562 13.0387712,10.9691654 C14.8908694,9.93387335 17.5578908,9.41622734 21.0398354,9.41622734 C25.0403675,9.41622734 28.0037245,10.1557216 30.0780745,11.7086597 C32.1524245,13.1876482 33.4859352,15.7019288 34.2267744,19.1036026 L42.2278386,19.1036026 C41.7092511,13.3355471 39.6349011,9.12042963 35.9307048,6.38430074 C32.4487602,3.72212128 27.6333049,2.46498098 21.4843389,2.46498098 L21.4843389,2.46498098 Z M47.5063188,32.2843879 C48.3274648,36.9751919 50.018162,40.9214491 52.6242831,44.1231595 C55.49915,47.7223787 59.303423,50.169947 64.0371021,51.4237832 C62.8832535,48.698822 58.9632012,40.5298024 51.3518805,34.7942608 C50.0950835,33.8471963 48.8022484,33.015165 47.5063188,32.2843879 Z" id="Combined-Shape" fill="#40220E" opacity="0.295767257"></path>
            <path d="M44.7217998,66.8162096 C52.9048845,66.8162096 66.0683388,61.8862476 66.0683388,61.8862476 C66.0683388,61.8862476 52.9048845,56.9562857 44.7217998,56.9562857 C36.5387152,56.9562857 29.9050144,61.8862476 29.9050144,61.8862476 C29.9050144,61.8862476 36.5387152,66.8162096 44.7217998,66.8162096 Z" id="Oval-3" fill="#333E4B" opacity="0.3" transform="translate(47.986677, 61.886248) rotate(-27.000000) translate(-47.986677, -61.886248) "></path>
            <path d="M56.6779186,83.4193851 C66.784085,83.4193851 83.0410425,77.3308478 83.0410425,77.3308478 C83.0410425,77.3308478 66.784085,71.2423105 56.6779186,71.2423105 C46.5717522,71.2423105 38.3790856,77.3308478 38.3790856,77.3308478 C38.3790856,77.3308478 46.5717522,83.4193851 56.6779186,83.4193851 Z" id="Oval-3" fill="#333E4B" opacity="0.3" transform="translate(60.710064, 77.330848) rotate(-76.000000) translate(-60.710064, -77.330848) "></path>
        </g>
    </g>
    <g id="student-center2" stroke="none" stroke-width="1" fill="none" fill-rule="evenodd" transform="translate(122.000000, 219.000000)">
        <g id="SC" transform="translate(0.000000, 0.000000)">
            <path d="M56.52978,33.6250874 C56.3220951,31.8995991 56.2192118,30.0836002 56.2192118,28.1770905 C56.2192118,20.1481346 58.1891573,13.6340761 62.2805824,8.55916997 C66.8266103,2.80256008 73.3425836,0 81.9800366,0 C88.2687086,0 93.4966407,1.59064221 97.5880658,4.92341636 C101.527957,8.10470077 103.952505,12.4979031 104.785943,17.9515335 L96.7546274,17.9515335 C95.8454218,14.3157799 94.1027777,11.5889647 91.5266953,9.84683271 C88.9506128,8.10470077 85.7683932,7.27150724 81.8285024,7.27150724 C75.9944332,7.27150724 71.5999396,9.24087378 68.6450214,13.2553517 C65.8416376,16.8911053 64.4778292,21.8902666 64.4778292,28.1770905 C64.4778292,34.6911491 65.8416376,39.6903103 68.5692543,43.2503191 C71.4484053,47.0375624 75.9186661,48.9311841 81.9800366,48.9311841 C85.9199275,48.9311841 89.2536813,47.9465008 91.8297638,45.9771343 C94.5573805,43.856278 96.4515588,40.6749936 97.5122987,36.433281 L105.543615,36.433281 C104.331341,42.720105 101.527957,47.6435214 97.0576959,51.2035301 C92.8905036,54.5363043 87.8898729,56.2026913 82.0558038,56.2026913 C78.1607161,56.2026913 74.6898375,55.6469946 71.6431679,54.548452 C69.8849224,50.9168906 64.0774626,39.7291094 56.52978,33.6250874 Z" id="Combined-Shape" fill="#4D301D"></path>
            <path d="M22.2321429,2.55466779 C16.4057882,2.55466779 11.5760468,3.85754836 7.74291872,6.4633095 C3.67980296,9.22235071 1.68657635,12.9777124 1.68657635,17.8060345 C1.68657635,22.5577166 3.75646552,26.2364382 7.9729064,28.7655593 C9.65948276,29.6852397 13.7992611,31.1414003 20.5455665,33.2873213 C26.6019089,35.1266821 30.2050493,36.3529226 31.4316502,36.9660429 C34.8814655,38.7287637 36.6447044,41.1046047 36.6447044,44.1702061 C36.6447044,46.6226871 35.4181034,48.538688 32.9649015,49.9182086 C30.5116995,51.2977292 27.2152094,52.0641295 23.075431,52.0641295 C18.4756773,52.0641295 15.1025246,51.2210892 12.8793103,49.5350084 C10.4261084,47.6956476 8.89285714,44.5534062 8.27955665,40.2615643 L0,40.2615643 C0.459975369,47.1591674 2.91317734,52.2174096 7.43626847,55.436291 C11.192734,58.0420521 16.4057882,59.4215728 23.075431,59.4215728 C29.9750616,59.4215728 35.3414409,58.0420521 39.174569,55.2830109 C43.007697,52.4473297 44.9242611,48.615328 44.9242611,43.7103659 C44.9242611,38.6521236 42.5477217,34.7434819 37.8713054,31.9078007 C35.7247537,30.6049201 30.8950123,28.8421993 23.5354064,26.5429983 C18.3990148,25.0101976 15.2558498,23.8605971 14.0292488,23.1708368 C11.2693966,21.7146762 9.966133,19.7986754 9.966133,17.3461943 C9.966133,14.5871531 11.1160714,12.5945122 13.4926108,11.3682717 C15.4091749,10.2953112 18.1690271,9.75883095 21.7721675,9.75883095 C25.9119458,9.75883095 28.9784483,10.5252313 31.125,12.134672 C33.2715517,13.6674727 34.6514778,16.2732338 35.4181034,19.7986754 L43.6976601,19.7986754 C43.1610222,13.8207527 41.0144704,9.45227082 37.1813424,6.61658957 C33.578202,3.85754836 28.5951355,2.55466779 22.2321429,2.55466779 L22.2321429,2.55466779 Z M49.1601042,33.460387 C50.0099199,38.3212695 51.7593907,42.4106583 54.4559729,45.7285534 C57.4328566,49.4611748 61.3727583,51.9986769 66.2756779,53.2973613 C65.0947574,50.4975677 61.0416504,42.0106818 53.1451321,36.0602285 C51.8428704,35.0789038 50.5031094,34.2170748 49.1601042,33.460387 Z" id="Combined-Shape" fill="#4D301D"></path>
            <path d="M46.2784285,69.247276 C54.7463412,69.247276 68.3679749,64.1379405 68.3679749,64.1379405 C68.3679749,64.1379405 54.7463412,59.0286049 46.2784285,59.0286049 C37.8105157,59.0286049 30.9459161,64.1379405 30.9459161,64.1379405 C30.9459161,64.1379405 37.8105157,69.247276 46.2784285,69.247276 Z" id="Oval-3" fill="#5DA5FF" transform="translate(49.656946, 64.137940) rotate(-27.000000) translate(-49.656946, -64.137940) "></path>
            <path d="M58.650703,86.4545478 C69.1086341,86.4545478 85.9314464,80.1444828 85.9314464,80.1444828 C85.9314464,80.1444828 69.1086341,73.8344179 58.650703,73.8344179 C48.192772,73.8344179 39.7149438,80.1444828 39.7149438,80.1444828 C39.7149438,80.1444828 48.192772,86.4545478 58.650703,86.4545478 Z" id="Oval-3" fill="#5DA5FF" transform="translate(62.823195, 80.144483) rotate(-76.000000) translate(-62.823195, -80.144483) "></path>
        </g>
        <text id="student-center-学生信息中" font-family="PingFangSC-Medium, PingFang SC" font-size="18" font-weight="400" letter-spacing="0.289999992">
            <tspan x="134.482759" y="19" fill="#4D301D">student center</tspan>
            <tspan x="134.482759" y="47.4000001" font-size="15" letter-spacing="0.24166666" fill="#6C6C6C">学生信息中心</tspan>
        </text>
    </g>
</svg>