
<svg width="221px" height="67px" viewBox="23 8 221 67" version="1.1" xmlns="http://www.w3.org/2000/svg" xmlns:xlink="http://www.w3.org/1999/xlink">
    <!-- Generator: Sketch 39.1 (31720) - http://www.bohemiancoding.com/sketch -->
    <desc>Created with Sketch.</desc>
    <defs></defs>
    <g id="student-center" stroke="none" stroke-width="1" fill="none" fill-rule="evenodd" transform="translate(23.000000, 10.000000)">
        <g id="SC">
            <path d="M34.7623871,20.6832969 C34.6346883,19.6219686 34.5714286,18.5049718 34.5714286,17.3323065 C34.5714286,12.393531 35.7828263,8.38659992 38.2988063,5.26492106 C41.0943396,1.72391221 45.1012707,0 50.412784,0 C54.2799384,0 57.4948017,0.978436658 60.0107817,3.02849442 C62.4335772,4.98536773 63.9245283,7.6877166 64.4370427,11.0423566 L59.4982672,11.0423566 C58.9391606,8.80592992 57.8675395,7.12860993 56.2834039,6.05698883 C54.6992684,4.98536773 52.7423951,4.47285329 50.3195995,4.47285329 C46.7319985,4.47285329 44.0296496,5.68425106 42.2125529,8.15363881 C40.4886407,10.3900655 39.6499807,13.4651521 39.6499807,17.3323065 C39.6499807,21.3392376 40.4886407,24.4143242 42.1659607,26.6041586 C43.9364652,28.9337697 46.6854062,30.0985753 50.412784,30.0985753 C52.8355795,30.0985753 54.8856373,29.4928764 56.4697728,28.2814786 C58.1470928,26.9768964 59.3118983,25.0200231 59.9641894,22.4108587 L64.902965,22.4108587 C64.1574894,26.2780131 62.4335772,29.3065075 59.6846361,31.4963419 C57.1220639,33.5463997 54.0469773,34.5714286 50.4593762,34.5714286 C48.0646642,34.5714286 45.9306993,34.22976 44.0574815,33.5543225 C42.9779545,31.3235444 39.4059614,24.4382968 34.7623871,20.6832969 Z" id="Combined-Shape" fill="#F6ABAB"></path>
            <path d="M13.6714286,1.57142857 C10.0885714,1.57142857 7.11857143,2.37285714 4.76142857,3.97571429 C2.26285714,5.67285714 1.03714286,7.98285714 1.03714286,10.9528571 C1.03714286,13.8757143 2.31,16.1385714 4.90285714,17.6942857 C5.94,18.26 8.48571429,19.1557143 12.6342857,20.4757143 C16.3585714,21.6071429 18.5742857,22.3614286 19.3285714,22.7385714 C21.45,23.8228571 22.5342857,25.2842857 22.5342857,27.17 C22.5342857,28.6785714 21.78,29.8571429 20.2714286,30.7057143 C18.7628571,31.5542857 16.7357143,32.0257143 14.19,32.0257143 C11.3614286,32.0257143 9.28714286,31.5071429 7.92,30.47 C6.41142857,29.3385714 5.46857143,27.4057143 5.09142857,24.7657143 L0,24.7657143 C0.282857143,29.0085714 1.79142857,32.12 4.57285714,34.1 C6.88285714,35.7028571 10.0885714,36.5514286 14.19,36.5514286 C18.4328571,36.5514286 21.7328571,35.7028571 24.09,34.0057143 C26.4471429,32.2614286 27.6257143,29.9042857 27.6257143,26.8871429 C27.6257143,23.7757143 26.1642857,21.3714286 23.2885714,19.6271429 C21.9685714,18.8257143 18.9985714,17.7414286 14.4728571,16.3271429 C11.3142857,15.3842857 9.38142857,14.6771429 8.62714286,14.2528571 C6.93,13.3571429 6.12857143,12.1785714 6.12857143,10.67 C6.12857143,8.97285714 6.83571429,7.74714286 8.29714286,6.99285714 C9.47571429,6.33285714 11.1728571,6.00285714 13.3885714,6.00285714 C15.9342857,6.00285714 17.82,6.47428571 19.14,7.46428571 C20.46,8.40714286 21.3085714,10.01 21.78,12.1785714 L26.8714286,12.1785714 C26.5414286,8.50142857 25.2214286,5.81428571 22.8642857,4.07 C20.6485714,2.37285714 17.5842857,1.57142857 13.6714286,1.57142857 L13.6714286,1.57142857 Z M30.2305307,20.5823311 C30.7531266,23.5722891 31.8289369,26.0877026 33.4871429,28.1285714 C35.3179779,30.424873 37.7411604,31.9858467 40.7566903,32.7846027 C40.03206,31.0653087 37.5400522,25.8423801 32.6817495,22.1813864 C31.8807328,21.577777 31.0566317,21.0477047 30.2305307,20.5823311 Z" id="Combined-Shape" fill="#F6ABAB"></path>
            <path d="M28.4584456,42.5954203 C33.6657019,42.5954203 42.042186,39.4525631 42.042186,39.4525631 C42.042186,39.4525631 33.6657019,36.309706 28.4584456,36.309706 C23.2511894,36.309706 19.0298742,39.4525631 19.0298742,39.4525631 C19.0298742,39.4525631 23.2511894,42.5954203 28.4584456,42.5954203 Z" id="Oval-3" fill="#CAE2FF" transform="translate(30.536030, 39.452563) rotate(-27.000000) translate(-30.536030, -39.452563) "></path>
            <path d="M36.0666492,53.1799662 C42.4976468,53.1799662 52.8426629,49.2985157 52.8426629,49.2985157 C52.8426629,49.2985157 42.4976468,45.4170653 36.0666492,45.4170653 C29.6356516,45.4170653 24.422298,49.2985157 24.422298,49.2985157 C24.422298,49.2985157 29.6356516,53.1799662 36.0666492,53.1799662 Z" id="Oval-3" fill="#CAE2FF" transform="translate(38.632480, 49.298516) rotate(-76.000000) translate(-38.632480, -49.298516) "></path>
        </g>
        <text font-family="PingFangSC-Regular, PingFang SC" font-size="12" font-weight="normal" letter-spacing="0.193333328" fill="#FFFFFF">
            <tspan x="88" y="30.2857143">student center</tspan>
        </text>
    </g>
</svg>