<?xml version="1.0" encoding="UTF-8" standalone="no"?>
<svg width="27px" height="27px" viewBox="0 0 27 27" version="1.1" xmlns="http://www.w3.org/2000/svg" xmlns:xlink="http://www.w3.org/1999/xlink">
    <!-- Generator: Sketch 39.1 (31720) - http://www.bohemiancoding.com/sketch -->
    <title>Combined Shape</title>
    <desc>Created with Sketch.</desc>
    <defs></defs>
    <g id="Page-1" stroke="none" stroke-width="1" fill="none" fill-rule="evenodd">
        <g id="notification" fill="#FFFFFF">
            <path d="M13.5,27 C20.9558441,27 27,20.9558441 27,13.5 C27,6.04415588 20.9558441,0 13.5,0 C6.04415588,0 0,6.04415588 0,13.5 C0,20.9558441 6.04415588,27 13.5,27 Z M13.326,7.808 C12.346,7.808 11.562,8.13 10.974,8.774 C10.358,9.418 10.05,10.3 10.05,11.42 L10.918,11.42 C10.918,10.496 11.142,9.782 11.59,9.292 C12.01,8.802 12.584,8.564 13.312,8.564 C13.998,8.564 14.544,8.746 14.95,9.11 C15.356,9.474 15.566,9.992 15.566,10.65 C15.566,11.336 15.286,11.98 14.74,12.568 C14.474,12.834 13.914,13.282 13.046,13.898 C12.052,14.584 11.352,15.158 10.946,15.62 C10.274,16.362 9.952,17.16 9.952,18 L16.448,18 L16.448,17.216 L11.002,17.216 C11.156,16.446 11.94,15.578 13.368,14.612 C14.432,13.884 15.118,13.352 15.44,13.016 C16.098,12.316 16.434,11.532 16.434,10.664 C16.434,9.796 16.14,9.11 15.552,8.592 C14.964,8.06 14.222,7.808 13.326,7.808 Z" id="Combined-Shape"></path>
        </g>
    </g>
</svg>