<?xml version="1.0" encoding="UTF-8" standalone="no"?>
<svg width="17px" height="15px" viewBox="0 0 17 15" version="1.1" xmlns="http://www.w3.org/2000/svg" xmlns:xlink="http://www.w3.org/1999/xlink">
    <!-- Generator: Sketch 39.1 (31720) - http://www.bohemiancoding.com/sketch -->
    <title>Combined Shape</title>
    <desc>Created with Sketch.</desc>
    <defs></defs>
    <g id="Page-1" stroke="none" stroke-width="1" fill="none" fill-rule="evenodd">
        <g id="icon-package3" fill="#FFFFFF">
            <path d="M2.5186953,1.04347651 L1.06564448,7.23028188 L6.26467159,7.23028188 C6.22244048,7.39522148 6.19996295,7.56304027 6.19996295,7.74018121 C6.19996295,8.8777047 7.12476981,9.79598658 8.26470715,9.79598658 C9.40373652,9.79598658 10.3284627,8.87661745 10.3284627,7.73911409 C10.3284627,7.56197315 10.3060658,7.39538255 10.263754,7.23044295 L15.461931,7.23044295 L14.0108622,1.04347651 L2.5186953,1.04347651 Z M2.07719118,0.0127651007 C1.9862535,0.00974745208 1.89780148,0.0336042213 1.81931484,0.0792782463 C1.75012779,0.118419461 1.69088018,0.173095223 1.64632452,0.238585298 C1.60014258,0.303284 1.56490507,0.379778635 1.54473455,0.465281879 L0.0185025939,6.96571812 C-0.00240109997,7.05511409 -0.00445918565,7.14501342 0.00867624358,7.23036242 L0,7.23036242 L0,13.9143826 C0,14.482349 0.470918253,14.982604 1.04092728,14.982604 L15.4866711,14.982604 C16.0576688,14.982604 16.5292529,14.482349 16.5292529,13.9144631 L16.5292529,7.23044295 L16.5209491,7.23044295 C16.5341733,7.14506673 16.5317019,7.05504027 16.5109924,6.96563758 L14.9827831,0.465281879 C14.9630295,0.380416107 14.9280622,0.304711409 14.8824413,0.240221477 C14.8440035,0.18314094 14.7942665,0.134416107 14.7366603,0.0967248322 C14.7298,0.092114094 14.7226976,0.088147651 14.7156557,0.0839395973 C14.7098043,0.0804765101 14.7040134,0.076852349 14.6980611,0.0736308725 C14.6268957,0.0344496644 14.5480629,0.0133489933 14.4666475,0.0133489933 C14.4630156,0.0132684564 14.4594644,0.0127651007 14.4557316,0.0127651007 L2.07719118,0.0127651007 Z" id="Combined-Shape"></path>
        </g>
    </g>
</svg>