<?xml version="1.0" encoding="UTF-8" standalone="no"?>
<svg width="20px" height="15px" viewBox="0 0 20 15" version="1.1" xmlns="http://www.w3.org/2000/svg" xmlns:xlink="http://www.w3.org/1999/xlink">
    <!-- Generator: Sketch 39.1 (31720) - http://www.bohemiancoding.com/sketch -->
    <title>Combined Shape</title>
    <desc>Created with Sketch.</desc>
    <defs></defs>
    <g id="Page-1" stroke="none" stroke-width="1" fill="none" fill-rule="evenodd">
        <g id="function" fill="#FFFFFF">
            <path d="M0,0.990511801 C0,0.443467239 0.443213695,0 1.0008971,0 L8.18829209,0 C8.74107229,0 9.18918919,0.448265542 9.18918919,0.990511801 L9.18918919,5.53122733 C9.18918919,6.07827189 8.74597549,6.52173913 8.18829209,6.52173913 L1.0008971,6.52173913 C0.448116897,6.52173913 0,6.07347359 0,5.53122733 L0,0.990511801 Z M10.8108108,9.46877267 C10.8108108,8.92172811 11.2540245,8.47826087 11.8117079,8.47826087 L18.9991029,8.47826087 C19.5518831,8.47826087 20,8.92652641 20,9.46877267 L20,14.0094882 C20,14.5565328 19.5567863,15 18.9991029,15 L11.8117079,15 C11.2589277,15 10.8108108,14.5517345 10.8108108,14.0094882 L10.8108108,9.46877267 Z M0,9.46877267 C0,8.92172811 0.443213695,8.47826087 1.0008971,8.47826087 L8.18829209,8.47826087 C8.74107229,8.47826087 9.18918919,8.92652641 9.18918919,9.46877267 L9.18918919,14.0094882 C9.18918919,14.5565328 8.74597549,15 8.18829209,15 L1.0008971,15 C0.448116897,15 0,14.5517345 0,14.0094882 L0,9.46877267 Z M10.8108108,0.990511801 C10.8108108,0.443467239 11.2540245,0 11.8117079,0 L18.9991029,0 C19.5518831,0 20,0.448265542 20,0.990511801 L20,5.53122733 C20,6.07827189 19.5567863,6.52173913 18.9991029,6.52173913 L11.8117079,6.52173913 C11.2589277,6.52173913 10.8108108,6.07347359 10.8108108,5.53122733 L10.8108108,0.990511801 Z" id="Combined-Shape"></path>
        </g>
    </g>
</svg>