<?xml version="1.0" encoding="UTF-8" standalone="no"?>
<svg width="17px" height="15px" viewBox="0 0 17 15" version="1.1" xmlns="http://www.w3.org/2000/svg" xmlns:xlink="http://www.w3.org/1999/xlink">
    <!-- Generator: Sketch 39.1 (31720) - http://www.bohemiancoding.com/sketch -->
    <title>Combined Shape Copy</title>
    <desc>Created with Sketch.</desc>
    <defs></defs>
    <g id="Page-1" stroke="none" stroke-width="1" fill="none" fill-rule="evenodd">
        <g id="icon-package2" fill="#FFFFFF">
            <path d="M8.69473217,15 C13.4943402,15 17.3851913,11.9194856 17.3851913,8.11947847 C17.3851913,6.56348414 17.385191,5.87813618 17.130115,4.26047778 C16.8162953,2.2702748 15.1761416,0 15.1761416,0 C15.1761416,0 14.0514804,2.29584203 12.7241559,2.02166505 C11.5197355,1.52174967 10.148946,1.23895694 8.69473217,1.23895694 C7.17635689,1.23895694 5.89329167,1.44972024 4.66949206,2.02166505 C2.58750635,2.37209912 1.84478426,0 1.84478426,0 C1.84478426,0 0.627763011,2.1798872 0.316431448,3.97549624 C-0.0607422706,5.88745121 0.00427308746,6.52236251 0.00427308746,8.11947847 C0.00427308746,11.9194856 3.89512415,15 8.69473217,15 Z M4.82381051,7.19751244 L3.33799883,8.22798452 L3.09138127,8.42895707 L3.50504459,8.90821987 L3.75166216,8.70724732 L5.40577197,7.35928708 L5.76732599,7.06465099 L5.35306789,6.84509298 L3.69895808,5.9684099 L3.41639084,5.81864843 L3.10813566,6.36777383 L3.39070291,6.5175353 L4.82381051,7.19751244 Z M11.7592931,6.84509298 L11.345035,7.06465099 L11.7065891,7.35928708 L13.3606989,8.70724732 L13.6073164,8.90821987 L14.0209798,8.42895707 L13.7743622,8.22798452 L12.2915574,7.22033653 L13.7216581,6.5175353 L14.0042254,6.36777383 L13.6959702,5.81864843 L13.4134029,5.9684099 L11.7592931,6.84509298 Z M6.13663274,11.1923168 C6.21416086,11.3711413 6.2971606,11.550116 6.38275228,11.7182517 C6.47071948,11.8910539 6.55675918,12.0431005 6.64043174,12.1697383 C6.7570835,12.3462898 6.86715772,12.4729854 6.98970351,12.5502576 C7.30629443,12.7498863 7.65498448,12.5951647 8.11212314,12.2347808 C8.21214936,12.1559254 8.31579038,12.0670639 8.42212598,11.9699211 C8.56562752,11.8388255 8.78585084,11.5529088 8.82030285,11.5142044 C8.82030285,11.5142044 9.08865534,11.8426103 9.23790429,11.9657416 C9.24773136,11.973848 9.24773136,11.973848 9.25756186,11.9819534 C9.44907234,12.1398366 9.60970456,12.270587 9.72991603,12.3659814 C9.79981729,12.421452 9.8556037,12.4646151 9.897163,12.4951905 C9.922596,12.5139017 9.94365273,12.5286362 9.96240409,12.5405127 C9.98063743,12.5519391 9.98063743,12.5519391 10.0117215,12.5679007 C10.0464479,12.6010424 10.0464479,12.6010424 10.3260622,12.5548205 C10.6202618,12.3802435 10.8550257,12.1370475 11.0374537,11.8451778 C11.261229,11.4871559 11.3702589,11.133417 11.4075159,10.8847316 L11.4538822,10.5752427 L10.8168587,10.4851369 L10.7704924,10.7946259 C10.7647384,10.8330327 10.7478659,10.910535 10.7161497,11.0134357 C10.6626168,11.1871191 10.5871382,11.3606547 10.4872396,11.5204843 C10.3551547,11.7318091 10.2014131,11.9325442 10.1371095,11.8815157 C10.0206581,11.7891051 9.86273275,11.660558 9.67403422,11.504993 C9.66429235,11.4969607 9.66429235,11.4969607 9.65455168,11.4889256 C9.50641875,11.366715 9.34876377,11.23568 9.19187591,11.104632 C9.09773822,11.025999 9.02481665,10.96487 8.98335489,10.9300197 L8.73990888,10.7253937 L8.52933514,10.9619585 C8.49975212,10.9951929 8.44446123,11.0553344 8.36977529,11.1332704 C8.24504822,11.2634251 8.11328992,11.3935141 7.98117831,11.5142045 C7.88560235,11.6015177 7.79349018,11.6804945 7.70653919,11.7490421 C7.56677491,11.8592248 7.25316715,11.9393099 7.18213955,11.8318102 C7.11307169,11.7272765 7.03796867,11.5945569 6.95976004,11.4409244 C6.88056276,11.2853498 6.80271854,11.117492 6.72987978,10.949484 C6.6861851,10.8486989 6.65408037,10.7707684 6.63692332,10.7274188 L6.52139059,10.4355098 L5.92055202,10.6600297 L6.03608475,10.9519387 C6.05553317,11.0010778 6.0901073,11.0850024 6.13663274,11.1923168 Z" id="Combined-Shape-Copy"></path>
        </g>
    </g>
</svg>