<?xml version="1.0" encoding="UTF-8" standalone="no"?>
<svg width="95px" height="33px" viewBox="0 0 95 33" version="1.1" xmlns="http://www.w3.org/2000/svg" xmlns:xlink="http://www.w3.org/1999/xlink">
    <!-- Generator: Sketch 39.1 (31720) - http://www.bohemiancoding.com/sketch -->
    <title>Group</title>
    <desc>Created with Sketch.</desc>
    <defs></defs>
    <g id="Page-1" stroke="none" stroke-width="1" fill="none" fill-rule="evenodd">
        <g id="SUSTech-OSA" fill="#FFFFFF">
            <g id="Group">
                <path d="M4.88711608,0.0106857143 C3.61125463,0.0106857143 2.56900162,0.263319048 1.77832692,0.80467619 C0.843893188,1.38212381 0.3946462,2.21220476 0.3946462,3.31296429 C0.3946462,4.32349762 0.879832947,5.09944286 1.86817632,5.65884524 C2.33539319,5.91147857 3.30576668,6.23629286 4.81523656,6.66937857 C6.28876668,7.06637381 7.27711006,7.40923333 7.78026668,7.71600238 C8.67876066,8.23931429 9.14597753,8.97916905 9.14597753,9.93556667 C9.14597753,10.7836929 8.75064018,11.4694119 7.99590524,11.9746786 C7.2411703,12.4799452 6.25282692,12.7325786 5.048845,12.7325786 C3.82689319,12.7325786 2.85651969,12.4258095 2.13772451,11.8303167 C1.34704981,11.1626429 0.897802827,10.1882 0.78998355,8.88894286 L0.107128128,8.88894286 C0.214947405,10.4047429 0.736073911,11.5596381 1.65253777,12.3355833 C2.47915222,13.0393476 3.62922451,13.4002524 5.06681487,13.4002524 C6.4504956,13.4002524 7.58259801,13.0934833 8.4631221,12.4979905 C9.37958596,11.8664071 9.84680283,11.0002357 9.84680283,9.91752143 C9.84680283,8.76262619 9.32567632,7.86036429 8.28342331,7.22878095 C7.69041728,6.86787619 6.59425463,6.47088095 5.01290524,6.03779524 C3.70110403,5.67689048 2.83854981,5.38816667 2.44321247,5.17162381 C1.54471849,4.70244762 1.0954715,4.08890952 1.0954715,3.29491905 C1.0954715,2.41070238 1.45486909,1.74302857 2.19163415,1.29189762 C2.83854981,0.858811905 3.73704379,0.660314286 4.8691462,0.660314286 C6.05515825,0.660314286 6.9716221,0.949038095 7.65447753,1.54453095 C8.31936307,2.14002381 8.71470042,2.98815 8.84048957,4.07086429 L9.54131487,4.07086429 C9.4334956,2.77160714 8.96627873,1.77911905 8.13966427,1.07535476 C7.34898957,0.353545238 6.25282692,0.0106857143 4.88711608,0.0106857143 L4.88711608,0.0106857143 Z M11.7875498,0.263319048 L11.7875498,8.11299762 C11.7875498,9.79120476 12.1649173,11.0724167 12.9196522,11.9746786 C13.7282968,12.913031 14.9682185,13.4002524 16.6394173,13.4002524 C18.328586,13.4002524 19.5685076,12.913031 20.3771522,11.9566333 C21.1318872,11.0724167 21.5092546,9.79120476 21.5092546,8.11299762 L21.5092546,0.263319048 L20.8084293,0.263319048 L20.8084293,8.13104286 C20.8084293,9.61075238 20.4849715,10.7295571 19.8560257,11.4874571 C19.1731703,12.3175381 18.0949775,12.7506238 16.6394173,12.7506238 C15.183857,12.7506238 14.1236342,12.3175381 13.4407787,11.4874571 C12.7938631,10.7295571 12.4883751,9.61075238 12.4883751,8.13104286 L12.4883751,0.263319048 L11.7875498,0.263319048 Z M28.2299896,0.0106857143 C26.9541281,0.0106857143 25.9118751,0.263319048 25.1212004,0.80467619 C24.1867667,1.38212381 23.7375197,2.21220476 23.7375197,3.31296429 C23.7375197,4.32349762 24.2227064,5.09944286 25.2110498,5.65884524 C25.6782667,5.91147857 26.6486402,6.23629286 28.1581101,6.66937857 C29.6316402,7.06637381 30.6199835,7.40923333 31.1231402,7.71600238 C32.0216342,8.23931429 32.488851,8.97916905 32.488851,9.93556667 C32.488851,10.7836929 32.0935137,11.4694119 31.3387787,11.9746786 C30.5840438,12.4799452 29.5957004,12.7325786 28.3917185,12.7325786 C27.1697667,12.7325786 26.1993932,12.4258095 25.480598,11.8303167 C24.6899233,11.1626429 24.2406763,10.1882 24.132857,8.88894286 L23.4500016,8.88894286 C23.5578209,10.4047429 24.0789474,11.5596381 24.9954113,12.3355833 C25.8220257,13.0393476 26.972098,13.4002524 28.4096884,13.4002524 C29.7933691,13.4002524 30.9254715,13.0934833 31.8059956,12.4979905 C32.7224595,11.8664071 33.1896763,11.0002357 33.1896763,9.91752143 C33.1896763,8.76262619 32.6685498,7.86036429 31.6262968,7.22878095 C31.0332908,6.86787619 29.9371281,6.47088095 28.3557787,6.03779524 C27.0439775,5.67689048 26.1814233,5.38816667 25.786086,5.17162381 C24.887592,4.70244762 24.438345,4.08890952 24.438345,3.29491905 C24.438345,2.41070238 24.7977426,1.74302857 25.5345076,1.29189762 C26.1814233,0.858811905 27.0799173,0.660314286 28.2120197,0.660314286 C29.3980317,0.660314286 30.3144956,0.949038095 30.997351,1.54453095 C31.6622366,2.14002381 32.0575739,2.98815 32.1833631,4.07086429 L32.8841884,4.07086429 C32.7763691,2.77160714 32.3091522,1.77911905 31.4825378,1.07535476 C30.6918631,0.353545238 29.5957004,0.0106857143 28.2299896,0.0106857143 L28.2299896,0.0106857143 Z M34.1420799,0.263319048 L34.1420799,0.912947619 L39.0658269,0.912947619 L39.0658269,13.147619 L39.7666522,13.147619 L39.7666522,0.912947619 L44.6544595,0.912947619 L44.6544595,0.263319048 L34.1420799,0.263319048 Z M49.8297848,3.56559762 C48.5359534,3.56559762 47.5116703,4.05281905 46.7209956,5.04530714 C45.9662607,5.98365952 45.6068631,7.12050952 45.6068631,8.47390238 C45.6068631,9.93556667 45.9842305,11.1265524 46.7749052,12.0468595 C47.5296402,12.9491214 48.5539233,13.4002524 49.8477546,13.4002524 C50.9978269,13.4002524 51.9322607,13.0573929 52.6690257,12.389719 C53.2620317,11.8122714 53.675339,11.0724167 53.8909775,10.1521095 L53.1542125,10.1521095 C52.9385739,10.9461 52.5791763,11.5596381 52.1119595,11.9927238 C51.5369233,12.4979905 50.7821884,12.768669 49.8477546,12.768669 C48.8055016,12.768669 47.9609173,12.389719 47.3140016,11.6498643 C46.6850558,10.9280548 46.361598,9.93556667 46.3256582,8.70849048 L54.0886462,8.70849048 C54.0167667,7.12050952 53.675339,5.89343333 53.0643631,5.04530714 C52.3455679,4.05281905 51.2673751,3.56559762 49.8297848,3.56559762 L49.8297848,3.56559762 Z M49.8477546,4.19718095 C52.0041402,4.19718095 53.1721823,5.4964381 53.369851,8.09495238 L46.3256582,8.09495238 C46.3975378,6.97614762 46.7389655,6.03779524 47.3679113,5.29794048 C47.996857,4.55808571 48.8234715,4.19718095 49.8477546,4.19718095 L49.8477546,4.19718095 Z M59.6772787,3.56559762 C58.3654775,3.56559762 57.3232245,4.05281905 56.5684896,5.06335238 C55.8496944,5.98365952 55.4902968,7.1566 55.4902968,8.58217381 C55.4902968,9.98970238 55.8317245,11.1265524 56.5145799,11.9927238 C57.251345,12.9310762 58.293598,13.4002524 59.6593089,13.4002524 C60.7375016,13.4002524 61.6180257,13.0934833 62.3008811,12.4979905 C62.9837366,11.8844524 63.4150137,11.0002357 63.5947125,9.86338571 L62.911857,9.86338571 C62.5883992,11.7942262 61.5102064,12.768669 59.6593089,12.768669 C58.5272064,12.768669 57.6646522,12.3716738 57.0716462,11.5957286 C56.4786402,10.8378286 56.1911221,9.84534048 56.1911221,8.58217381 C56.1911221,7.28291667 56.4966101,6.2543381 57.107586,5.46034762 C57.7545016,4.61222143 58.599086,4.19718095 59.6772787,4.19718095 C60.5578028,4.19718095 61.276598,4.41372381 61.8516342,4.86485476 C62.3907305,5.29794048 62.7321582,5.94756905 62.8579474,6.83178571 L63.5408028,6.83178571 C63.3970438,5.73102619 62.9837366,4.91899048 62.3008811,4.37763333 C61.6180257,3.83627619 60.7554715,3.56559762 59.6772787,3.56559762 L59.6772787,3.56559762 Z M65.3557607,0.0106857143 L65.3557607,13.147619 L66.056586,13.147619 L66.056586,7.69795714 C66.056586,6.72351429 66.3620739,5.89343333 66.9730498,5.20771429 C67.5660558,4.52199524 68.2668811,4.19718095 69.0934956,4.19718095 C69.9560498,4.19718095 70.6389052,4.44981429 71.1420619,4.95508095 C71.6452185,5.47839286 71.9147667,6.21824762 71.9147667,7.19269048 L71.9147667,13.147619 L72.5976221,13.147619 L72.5976221,7.13855476 C72.5976221,6.00170476 72.2921342,5.1174881 71.6811582,4.48590476 C71.0701823,3.87236667 70.2615378,3.56559762 69.2192848,3.56559762 C68.5364293,3.56559762 67.9254534,3.74605 67.386357,4.125 C66.8292908,4.50395 66.3800438,5.0272619 66.056586,5.69493571 L66.056586,0.0106857143 L65.3557607,0.0106857143 Z" id="SUSTech"></path>
                <path d="M64.7724615,19.4538667 C62.8607692,19.4538667 61.3524615,20.0698667 60.2650769,21.3370667 C59.2127692,22.5338667 58.7041538,24.0826667 58.7041538,26.0010667 C58.7041538,27.9018667 59.2127692,29.4506667 60.2650769,30.6474667 C61.3524615,31.8794667 62.8607692,32.5130667 64.7724615,32.5130667 C66.6666154,32.5130667 68.1749231,31.8970667 69.2798462,30.6650667 C70.3321538,29.4682667 70.8583077,27.9194667 70.8583077,26.0010667 C70.8583077,24.0650667 70.3321538,22.4986667 69.2798462,21.3194667 C68.1749231,20.0698667 66.6666154,19.4538667 64.7724615,19.4538667 L64.7724615,19.4538667 Z M64.7724615,21.1434667 C66.1053846,21.1434667 67.1401538,21.5658667 67.8592308,22.4458667 C68.5607692,23.3082667 68.9290769,24.4874667 68.9290769,26.0010667 C68.9290769,27.4970667 68.5607692,28.6762667 67.8592308,29.5210667 C67.1401538,30.3834667 66.1053846,30.8234667 64.7724615,30.8234667 C63.4395385,30.8234667 62.4047692,30.3658667 61.6681538,29.4858667 C60.9666154,28.6234667 60.6158462,27.4618667 60.6158462,26.0010667 C60.6158462,24.5226667 60.9666154,23.3610667 61.6681538,22.4986667 C62.4047692,21.5834667 63.4395385,21.1434667 64.7724615,21.1434667 L64.7724615,21.1434667 Z M77.1721538,19.4538667 C75.8392308,19.4538667 74.7343077,19.7530667 73.8573846,20.3514667 C72.9278462,20.9850667 72.4718462,21.8474667 72.4718462,22.9562667 C72.4718462,24.0474667 72.9453846,24.8922667 73.91,25.4730667 C74.2958462,25.6842667 75.2429231,26.0186667 76.7863077,26.5114667 C78.1718462,26.9338667 78.9961538,27.2154667 79.2767692,27.3562667 C80.066,27.7610667 80.4693846,28.3066667 80.4693846,29.0106667 C80.4693846,29.5738667 80.1887692,30.0138667 79.6275385,30.3306667 C79.0663077,30.6474667 78.3121538,30.8234667 77.3650769,30.8234667 C76.3127692,30.8234667 75.5410769,30.6298667 75.0324615,30.2426667 C74.4712308,29.8202667 74.1204615,29.0986667 73.9801538,28.1130667 L72.086,28.1130667 C72.1912308,29.6970667 72.7524615,30.8586667 73.7872308,31.5978667 C74.6466154,32.1962667 75.8392308,32.5130667 77.3650769,32.5130667 C78.9435385,32.5130667 80.1712308,32.1962667 81.0481538,31.5626667 C81.9250769,30.9114667 82.3635385,30.0314667 82.3635385,28.9050667 C82.3635385,27.7434667 81.8198462,26.8458667 80.75,26.1946667 C80.2589231,25.8954667 79.154,25.4906667 77.4703077,24.9626667 C76.2952308,24.6106667 75.5761538,24.3466667 75.2955385,24.1882667 C74.6641538,23.8538667 74.366,23.4138667 74.366,22.8506667 C74.366,22.2170667 74.6290769,21.7594667 75.1727692,21.4778667 C75.6112308,21.2314667 76.2426154,21.1082667 77.0669231,21.1082667 C78.014,21.1082667 78.7155385,21.2842667 79.2066154,21.6538667 C79.6976923,22.0058667 80.0133846,22.6042667 80.1887692,23.4138667 L82.0829231,23.4138667 C81.9601538,22.0410667 81.4690769,21.0378667 80.5921538,20.3866667 C79.7678462,19.7530667 78.6278462,19.4538667 77.1721538,19.4538667 L77.1721538,19.4538667 Z M87.7303077,19.7002667 L82.9072308,32.2666667 L84.9416923,32.2666667 L86.1167692,29.0282667 L91.5010769,29.0282667 L92.6761538,32.2666667 L94.7281538,32.2666667 L89.9050769,19.7002667 L87.7303077,19.7002667 Z M86.6955385,27.4442667 L88.7826154,21.7594667 L88.8527692,21.7594667 L90.9223077,27.4442667 L86.6955385,27.4442667 Z" id="OSA"></path>
            </g>
        </g>
    </g>
</svg>