<?xml version="1.0" encoding="UTF-8" standalone="no"?>
<svg width="275px" height="68px" viewBox="0 0 275 68" version="1.1" xmlns="http://www.w3.org/2000/svg" xmlns:xlink="http://www.w3.org/1999/xlink">
    <!-- Generator: Sketch 39.1 (31720) - http://www.bohemiancoding.com/sketch -->
    <title>SUSTech Student Serv</title>
    <desc>Created with Sketch.</desc>
    <defs></defs>
    <g id="Page-1" stroke="none" stroke-width="1" fill="none" fill-rule="evenodd">
        <g id="paintint-board" transform="translate(-588.000000, -874.000000)" fill="#1D1614">
            <path d="M600.826862,874 C597.599188,874 594.958363,874.712603 592.862471,876.179728 C590.598907,877.688771 589.509043,879.784663 589.509043,882.425488 C589.509043,885.066312 590.640825,887.078369 592.946306,888.461658 C593.826581,888.964672 596.132063,889.803029 599.820834,890.976729 C603.132344,891.982758 605.060565,892.653443 605.647415,892.946868 C607.4918,893.869061 608.455911,895.126596 608.455911,896.719475 C608.455911,897.97701 607.785225,898.941121 606.52769,899.695642 C605.270154,900.408246 603.509605,900.785506 601.329876,900.785506 C598.856723,900.785506 597.054256,900.32441 595.880556,899.486053 C594.581102,898.521942 593.784663,896.887146 593.449321,894.623582 L588.58685,894.623582 C588.796439,898.438107 590.179728,901.204685 592.694799,902.965234 C594.748774,904.390441 597.641106,905.103045 601.329876,905.103045 C605.144401,905.103045 608.120568,904.306606 610.216461,902.797563 C612.312353,901.246603 613.360299,899.108792 613.360299,896.42605 C613.360299,893.659472 612.060846,891.521661 609.461939,889.970701 C608.288239,889.300015 605.689333,888.293987 601.623301,887.036451 C598.856723,886.156177 597.138091,885.527409 596.509324,885.192066 C595.084117,884.437545 594.413431,883.389598 594.413431,882.132063 C594.413431,880.706856 595.000281,879.65891 596.257816,879.030142 C597.263845,878.48521 598.689052,878.233703 600.575355,878.233703 C602.755083,878.233703 604.431797,878.610964 605.521661,879.449321 C606.611525,880.24576 607.407965,881.587131 607.827143,883.431516 L612.689614,883.431516 C612.396189,880.161924 611.180571,877.730689 609.084679,876.179728 C607.11454,874.712603 604.347962,874 600.826862,874 L600.826862,874 Z M619.899484,874.58685 L619.899484,893.156457 C619.899484,897.054818 620.989348,900.030985 623.210994,902.126877 C625.306887,904.097016 628.36689,905.103045 632.349085,905.103045 C636.289363,905.103045 639.349366,904.097016 641.529095,902.08496 C643.708823,900.030985 644.798687,897.054818 644.798687,893.156457 L644.798687,874.58685 L639.894299,874.58685 L639.894299,893.240293 C639.894299,895.8392 639.265531,897.725503 638.091831,898.983039 C636.876213,900.198656 634.947992,900.827424 632.349085,900.827424 C629.708261,900.827424 627.78004,900.198656 626.60634,898.983039 C625.390722,897.725503 624.803872,895.8392 624.803872,893.240293 L624.803872,874.58685 L619.899484,874.58685 Z M663.577884,874 C660.350209,874 657.709385,874.712603 655.613492,876.179728 C653.349928,877.688771 652.260064,879.784663 652.260064,882.425488 C652.260064,885.066312 653.391846,887.078369 655.697328,888.461658 C656.577603,888.964672 658.883085,889.803029 662.571856,890.976729 C665.883366,891.982758 667.811587,892.653443 668.398437,892.946868 C670.242822,893.869061 671.206933,895.126596 671.206933,896.719475 C671.206933,897.97701 670.536247,898.941121 669.278712,899.695642 C668.021176,900.408246 666.260626,900.785506 664.080898,900.785506 C661.607745,900.785506 659.805277,900.32441 658.631578,899.486053 C657.332124,898.521942 656.535685,896.887146 656.200342,894.623582 L651.337872,894.623582 C651.547461,898.438107 652.93075,901.204685 655.445821,902.965234 C657.499796,904.390441 660.392127,905.103045 664.080898,905.103045 C667.895422,905.103045 670.87159,904.306606 672.967482,902.797563 C675.063375,901.246603 676.111321,899.108792 676.111321,896.42605 C676.111321,893.659472 674.811868,891.521661 672.212961,889.970701 C671.039261,889.300015 668.440355,888.293987 664.374323,887.036451 C661.607745,886.156177 659.889113,885.527409 659.260345,885.192066 C657.835138,884.437545 657.164453,883.389598 657.164453,882.132063 C657.164453,880.706856 657.751303,879.65891 659.008838,879.030142 C660.014867,878.48521 661.440074,878.233703 663.326377,878.233703 C665.506105,878.233703 667.182819,878.610964 668.272683,879.449321 C669.362547,880.24576 670.158986,881.587131 670.578165,883.431516 L675.440635,883.431516 C675.147211,880.161924 673.931593,877.730689 671.8357,876.179728 C669.865561,874.712603 667.098983,874 663.577884,874 L663.577884,874 Z M680.345024,874.58685 L680.345024,878.778635 L690.153801,878.778635 L690.153801,904.516195 L695.058189,904.516195 L695.058189,878.778635 L704.866966,878.778635 L704.866966,874.58685 L680.345024,874.58685 Z M719.580132,882.257816 C716.352457,882.257816 713.795469,883.347681 711.951083,885.569327 C710.022862,887.749055 709.100669,890.431797 709.100669,893.659472 C709.100669,897.264407 710.106698,900.072903 712.118755,902.126877 C714.005058,904.097016 716.562047,905.103045 719.789721,905.103045 C722.682053,905.103045 725.07137,904.264688 726.999591,902.629892 C728.508634,901.28852 729.514662,899.569889 730.017677,897.557832 L725.239042,897.557832 C724.652192,898.773449 724.023424,899.653724 723.31082,900.198656 C722.388628,900.869342 721.214928,901.204685 719.747803,901.204685 C718.029171,901.204685 716.6878,900.659753 715.765607,899.611806 C714.843415,898.56386 714.298483,897.0129 714.130811,895.000843 L730.353019,895.000843 C730.353019,891.102483 729.472744,888.04248 727.754113,885.862752 C725.867809,883.431516 723.143149,882.257816 719.580132,882.257816 L719.580132,882.257816 Z M719.705885,886.156177 C723.059313,886.156177 724.945617,887.874808 725.364795,891.395908 L714.214647,891.395908 C714.508072,889.677276 715.094922,888.377823 715.975197,887.497548 C716.897389,886.575355 718.113007,886.156177 719.705885,886.156177 L719.705885,886.156177 Z M746.197967,882.257816 C742.802621,882.257816 740.161796,883.389598 738.275493,885.653162 C736.514943,887.707137 735.634669,890.389879 735.634669,893.659472 C735.634669,897.0129 736.514943,899.73756 738.317411,901.833452 C740.161796,904.013181 742.760703,905.103045 746.114131,905.103045 C748.922627,905.103045 751.186191,904.390441 752.862905,903.007152 C754.581537,901.581945 755.713319,899.402217 756.216333,896.467968 L751.479616,896.467968 C751.102355,899.611806 749.341805,901.204685 746.156049,901.204685 C744.311663,901.204685 742.928374,900.533999 742.006182,899.234546 C741.000153,897.893175 740.539057,896.006871 740.539057,893.617554 C740.539057,891.270154 741.042071,889.425769 742.0481,888.126315 C743.054128,886.784944 744.437417,886.156177 746.197967,886.156177 C747.623174,886.156177 748.796873,886.491519 749.677148,887.162205 C750.515505,887.832891 751.102355,888.838919 751.39578,890.222208 L756.132497,890.222208 C755.713319,887.497548 754.623455,885.485491 752.904823,884.14412 C751.228109,882.886584 749.006463,882.257816 746.197967,882.257816 L746.197967,882.257816 Z M762.336339,874 L762.336339,904.516195 L767.114974,904.516195 L767.114974,892.401936 C767.114974,890.557551 767.534153,889.090426 768.414427,887.916726 C769.252784,886.743026 770.426484,886.156177 771.935527,886.156177 C773.570323,886.156177 774.785941,886.659191 775.624298,887.707137 C776.336901,888.671248 776.714162,890.096454 776.714162,891.94084 L776.714162,904.516195 L781.492797,904.516195 L781.492797,891.102483 C781.492797,888.210151 780.864029,886.030423 779.648411,884.563298 C778.348958,883.012338 776.378819,882.257816 773.737994,882.257816 C772.354705,882.257816 771.139088,882.509324 770.091141,883.054256 C768.917442,883.641106 767.911413,884.52138 767.114974,885.736998 L767.114974,874 L762.336339,874 Z M593.868499,925.586901 C592.317539,925.586901 591.039044,925.922244 590.053975,926.592929 C588.943152,927.305533 588.39822,928.33252 588.39822,929.631973 C588.39822,930.889509 588.964111,931.853619 590.116851,932.524305 C590.598907,932.775812 591.751648,933.194991 593.554115,933.739923 C595.230829,934.221978 596.299734,934.57828 596.718913,934.829787 C597.703982,935.35376 598.206996,936.087322 598.206996,937.030474 C598.206996,937.826913 597.829736,938.455681 597.075215,938.916777 C596.320693,939.377874 595.314665,939.608422 594.099047,939.608422 C592.757676,939.608422 591.751648,939.314997 591.060003,938.770065 C590.305482,938.162256 589.844385,937.198145 589.697673,935.898692 L588,935.898692 C588.125754,937.743077 588.77548,939.105408 589.94918,940.006641 C590.955208,940.761163 592.338497,941.138423 594.099047,941.138423 C595.880556,941.138423 597.284804,940.761163 598.33275,940.0276 C599.380696,939.273079 599.904669,938.225133 599.904669,936.925679 C599.904669,935.563349 599.275902,934.515403 598.039325,933.760882 C597.410557,933.383621 596.111104,932.901566 594.140965,932.314716 C592.694799,931.895537 591.772607,931.581153 591.395346,931.371564 C590.53603,930.910468 590.116851,930.302659 590.116851,929.548138 C590.116851,928.688822 590.473153,928.060054 591.185757,927.640876 C591.814524,927.263615 592.67384,927.095943 593.784663,927.095943 C595.000281,927.095943 595.943433,927.347451 596.614118,927.892383 C597.263845,928.416356 597.683023,929.212795 597.871654,930.302659 L599.569327,930.302659 C599.422614,928.73074 598.856723,927.536081 597.850695,926.739642 C596.886584,925.964162 595.545213,925.586901 593.868499,925.586901 L593.868499,925.586901 Z M606.52769,926.509094 L604.871935,927.200738 L604.871935,930.009234 L602.692206,930.009234 L602.692206,931.413482 L604.871935,931.413482 L604.871935,938.308968 C604.871935,939.126366 605.039606,939.734175 605.395908,940.153354 C605.773168,940.61445 606.422895,940.844998 607.30317,940.844998 L608.937966,940.844998 L608.937966,939.44075 L607.554677,939.44075 C607.177416,939.44075 606.90495,939.335956 606.758238,939.168284 C606.590567,939.000613 606.52769,938.707188 606.52769,938.308968 L606.52769,931.413482 L609.210432,931.413482 L609.210432,930.009234 L606.52769,930.009234 L606.52769,926.509094 Z M612.836326,930.009234 L612.836326,936.71609 C612.836326,939.65034 614.13578,941.138423 616.776604,941.138423 C618.243729,941.138423 619.417429,940.467738 620.297703,939.168284 L620.297703,940.844998 L621.974417,940.844998 L621.974417,930.009234 L620.297703,930.009234 L620.297703,936.611295 C620.17195,937.533488 619.815648,938.288009 619.228798,938.874859 C618.662907,939.419791 618.013181,939.713216 617.300577,939.713216 C616.315508,939.713216 615.602904,939.44075 615.162767,938.937736 C614.722629,938.434722 614.51304,937.659242 614.51304,936.632254 L614.51304,930.009234 L612.836326,930.009234 Z M634.340183,925.586901 L634.340183,932.000332 C633.501826,930.47033 632.307168,929.715809 630.756207,929.715809 C629.205247,929.715809 628.010588,930.2817 627.130313,931.4554 C626.312915,932.503346 625.914695,933.802799 625.914695,935.395678 C625.914695,937.030474 626.312915,938.371845 627.130313,939.419791 C628.010588,940.551573 629.247164,941.138423 630.840043,941.138423 C632.474839,941.138423 633.690457,940.446779 634.444978,939.06349 L634.444978,940.844998 L636.016897,940.844998 L636.016897,925.586901 L634.340183,925.586901 Z M631.112509,931.099098 C632.076619,931.099098 632.873058,931.476359 633.480867,932.272798 C634.067717,933.048278 634.382101,934.075265 634.382101,935.332801 L634.382101,935.54239 C634.382101,936.758008 634.109635,937.743077 633.585662,938.497599 C632.977853,939.335956 632.139496,939.755134 631.049632,939.755134 C629.875932,939.755134 628.995657,939.314997 628.408807,938.47664 C627.884834,937.722118 627.633327,936.695131 627.633327,935.395678 C627.633327,934.096224 627.884834,933.090196 628.429766,932.356634 C629.016616,931.518277 629.91785,931.099098 631.112509,931.099098 L631.112509,931.099098 Z M644.840605,929.715809 C643.268685,929.715809 642.032109,930.2817 641.109916,931.413482 C640.187723,932.482387 639.747586,933.823758 639.747586,935.416637 C639.747586,937.177186 640.208682,938.560475 641.172793,939.608422 C642.094985,940.61445 643.352521,941.138423 644.903481,941.138423 C646.307729,941.138423 647.46047,940.719245 648.361704,939.922806 C649.095266,939.25212 649.577322,938.413763 649.828829,937.365817 L648.152115,937.365817 C647.879649,938.120338 647.523347,938.686229 647.062251,939.06349 C646.517319,939.503627 645.783756,939.734175 644.903481,939.734175 C643.876494,939.734175 643.059096,939.398832 642.472246,938.728147 C641.885396,938.057461 641.571012,937.11431 641.487177,935.898692 L650.038418,935.898692 C649.9965,934.012389 649.577322,932.524305 648.780883,931.476359 C647.900608,930.302659 646.580195,929.715809 644.840605,929.715809 L644.840605,929.715809 Z M644.882523,931.120057 C646.936497,931.120057 648.089238,932.272798 648.298827,934.599239 L641.529095,934.599239 C641.633889,933.530333 641.969232,932.691976 642.556082,932.063209 C643.142932,931.434441 643.918412,931.120057 644.882523,931.120057 L644.882523,931.120057 Z M658.841167,929.715809 C658.128563,929.715809 657.478836,929.88348 656.891987,930.218823 C656.305137,930.533207 655.823081,930.994304 655.445821,931.602112 L655.445821,930.009234 L653.769107,930.009234 L653.769107,940.844998 L655.445821,940.844998 L655.445821,934.305814 C655.508698,933.320744 655.823081,932.545264 656.409931,931.958414 C656.954863,931.413482 657.60459,931.141016 658.359111,931.141016 C660.245415,931.141016 661.209525,932.188962 661.209525,934.305814 L661.209525,940.844998 L662.886239,940.844998 L662.886239,934.18006 C662.886239,931.203893 661.523909,929.715809 658.841167,929.715809 L658.841167,929.715809 Z M670.138027,926.509094 L668.482272,927.200738 L668.482272,930.009234 L666.302544,930.009234 L666.302544,931.413482 L668.482272,931.413482 L668.482272,938.308968 C668.482272,939.126366 668.649944,939.734175 669.006245,940.153354 C669.383506,940.61445 670.033233,940.844998 670.913507,940.844998 L672.548304,940.844998 L672.548304,939.44075 L671.165015,939.44075 C670.787754,939.44075 670.515288,939.335956 670.368575,939.168284 C670.200904,939.000613 670.138027,938.707188 670.138027,938.308968 L670.138027,931.413482 L672.82077,931.413482 L672.82077,930.009234 L670.138027,930.009234 L670.138027,926.509094 Z M690.426267,925.586901 C688.875306,925.586901 687.596812,925.922244 686.611742,926.592929 C685.500919,927.305533 684.955987,928.33252 684.955987,929.631973 C684.955987,930.889509 685.521878,931.853619 686.674619,932.524305 C687.156674,932.775812 688.309415,933.194991 690.111883,933.739923 C691.788597,934.221978 692.857502,934.57828 693.27668,934.829787 C694.26175,935.35376 694.764764,936.087322 694.764764,937.030474 C694.764764,937.826913 694.387503,938.455681 693.632982,938.916777 C692.878461,939.377874 691.872432,939.608422 690.656815,939.608422 C689.315444,939.608422 688.309415,939.314997 687.617771,938.770065 C686.863249,938.162256 686.402153,937.198145 686.255441,935.898692 L684.557768,935.898692 C684.683521,937.743077 685.333248,939.105408 686.506948,940.006641 C687.512976,940.761163 688.896265,941.138423 690.656815,941.138423 C692.438323,941.138423 693.842571,940.761163 694.890518,940.0276 C695.938464,939.273079 696.462437,938.225133 696.462437,936.925679 C696.462437,935.563349 695.833669,934.515403 694.597093,933.760882 C693.968325,933.383621 692.668872,932.901566 690.698733,932.314716 C689.252567,931.895537 688.330374,931.581153 687.953113,931.371564 C687.093798,930.910468 686.674619,930.302659 686.674619,929.548138 C686.674619,928.688822 687.030921,928.060054 687.743524,927.640876 C688.372292,927.263615 689.231608,927.095943 690.342431,927.095943 C691.558049,927.095943 692.5012,927.347451 693.171886,927.892383 C693.821612,928.416356 694.240791,929.212795 694.429421,930.302659 L696.127094,930.302659 C695.980382,928.73074 695.414491,927.536081 694.408462,926.739642 C693.444352,925.964162 692.102981,925.586901 690.426267,925.586901 L690.426267,925.586901 Z M704.657377,929.715809 C703.085457,929.715809 701.848881,930.2817 700.926688,931.413482 C700.004495,932.482387 699.564358,933.823758 699.564358,935.416637 C699.564358,937.177186 700.025454,938.560475 700.989565,939.608422 C701.911758,940.61445 703.169293,941.138423 704.720253,941.138423 C706.124501,941.138423 707.277242,940.719245 708.178476,939.922806 C708.912038,939.25212 709.394094,938.413763 709.645601,937.365817 L707.968887,937.365817 C707.696421,938.120338 707.340119,938.686229 706.879023,939.06349 C706.334091,939.503627 705.600528,939.734175 704.720253,939.734175 C703.693266,939.734175 702.875868,939.398832 702.289018,938.728147 C701.702168,938.057461 701.387784,937.11431 701.303949,935.898692 L709.85519,935.898692 C709.813272,934.012389 709.394094,932.524305 708.597655,931.476359 C707.71738,930.302659 706.396967,929.715809 704.657377,929.715809 L704.657377,929.715809 Z M704.699295,931.120057 C706.753269,931.120057 707.90601,932.272798 708.115599,934.599239 L701.345867,934.599239 C701.450661,933.530333 701.786004,932.691976 702.372854,932.063209 C702.959704,931.434441 703.735184,931.120057 704.699295,931.120057 L704.699295,931.120057 Z M718.343555,929.715809 C717.589033,929.715809 716.939307,929.946357 716.373416,930.407454 C715.912319,930.763755 715.535059,931.26677 715.241634,931.895537 L715.241634,930.009234 L713.585879,930.009234 L713.585879,940.844998 L715.241634,940.844998 L715.241634,935.102253 C715.241634,934.096224 715.5141,933.236908 716.10095,932.524305 C716.666841,931.769784 717.379444,931.413482 718.217801,931.413482 C718.741774,931.413482 719.286706,931.476359 719.831638,931.64403 L719.831638,929.967316 C719.433419,929.799645 718.930405,929.715809 718.343555,929.715809 L718.343555,929.715809 Z M721.801777,930.009234 L725.888768,940.844998 L727.586441,940.844998 L731.69439,930.009234 L729.850005,930.009234 L726.748084,938.749106 L723.646163,930.009234 L721.801777,930.009234 Z M736.242477,925.922244 C735.886175,925.922244 735.59275,926.027038 735.341243,926.278545 C735.089736,926.488135 734.984941,926.78156 734.984941,927.15882 C734.984941,927.515122 735.089736,927.808547 735.341243,928.060054 C735.59275,928.290602 735.886175,928.416356 736.242477,928.416356 C736.598778,928.416356 736.892203,928.290602 737.14371,928.060054 C737.395218,927.808547 737.520971,927.515122 737.520971,927.15882 C737.520971,926.78156 737.395218,926.488135 737.14371,926.278545 C736.892203,926.027038 736.598778,925.922244 736.242477,925.922244 L736.242477,925.922244 Z M735.40412,930.009234 L735.40412,940.844998 L737.080834,940.844998 L737.080834,930.009234 L735.40412,930.009234 Z M746.659062,929.715809 C745.045225,929.715809 743.766731,930.2817 742.844538,931.434441 C741.985222,932.482387 741.566044,933.823758 741.566044,935.479513 C741.566044,937.135269 741.985222,938.47664 742.844538,939.503627 C743.745772,940.593491 745.003307,941.138423 746.638104,941.138423 C747.979475,941.138423 749.04838,940.782122 749.865778,940.090477 C750.704135,939.377874 751.228108,938.308968 751.479615,936.925679 L749.802901,936.925679 C749.551394,938.791024 748.482489,939.734175 746.638104,939.734175 C745.548239,939.734175 744.709882,939.335956 744.143991,938.581434 C743.557142,937.826913 743.284676,936.778967 743.284676,935.458555 C743.284676,934.138142 743.5781,933.090196 744.16495,932.314716 C744.772759,931.518277 745.611116,931.120057 746.659062,931.120057 C747.518378,931.120057 748.210023,931.308687 748.754955,931.727866 C749.278928,932.147044 749.614271,932.775812 749.760983,933.614169 L751.416738,933.614169 C751.228108,932.293757 750.725094,931.308687 749.886737,930.658961 C749.069339,930.030193 748.000434,929.715809 746.659062,929.715809 L746.659062,929.715809 Z M759.674555,929.715809 C758.102636,929.715809 756.866059,930.2817 755.943866,931.413482 C755.021674,932.482387 754.581536,933.823758 754.581536,935.416637 C754.581536,937.177186 755.042632,938.560475 756.006743,939.608422 C756.928936,940.61445 758.186471,941.138423 759.737432,941.138423 C761.14168,941.138423 762.294421,940.719245 763.195654,939.922806 C763.929217,939.25212 764.411272,938.413763 764.662779,937.365817 L762.986065,937.365817 C762.713599,938.120338 762.357297,938.686229 761.896201,939.06349 C761.351269,939.503627 760.617707,939.734175 759.737432,939.734175 C758.710444,939.734175 757.893046,939.398832 757.306196,938.728147 C756.719346,938.057461 756.404963,937.11431 756.321127,935.898692 L764.872368,935.898692 C764.83045,934.012389 764.411272,932.524305 763.614833,931.476359 C762.734558,930.302659 761.414146,929.715809 759.674555,929.715809 L759.674555,929.715809 Z M759.716473,931.120057 C761.770447,931.120057 762.923188,932.272798 763.132778,934.599239 L756.363045,934.599239 C756.467839,933.530333 756.803182,932.691976 757.390032,932.063209 C757.976882,931.434441 758.752362,931.120057 759.716473,931.120057 L759.716473,931.120057 Z M772.43854,929.715809 C771.222923,929.715809 770.216894,929.988275 769.462373,930.533207 C768.644975,931.078139 768.246755,931.790743 768.246755,932.712935 C768.246755,933.635128 768.644975,934.326773 769.483332,934.829787 C769.986346,935.16513 770.88758,935.479513 772.166074,935.793897 C773.339774,936.087322 774.115254,936.31787 774.471556,936.485542 C775.142242,936.820885 775.498543,937.281981 775.498543,937.88979 C775.498543,939.105408 774.513474,939.734175 772.585253,939.734175 C771.66306,939.734175 770.971415,939.566504 770.510319,939.231161 C770.049223,938.8539 769.734839,938.246092 769.609085,937.386776 L767.974289,937.386776 C768.225796,939.880888 769.776757,941.138423 772.627171,941.138423 C775.687174,941.138423 777.217175,940.006641 777.217175,937.784995 C777.217175,936.841844 776.777038,936.108281 775.917722,935.563349 C775.351831,935.207047 774.429638,934.871705 773.130185,934.557321 C772.040321,934.263896 771.285799,934.033348 770.88758,933.844717 C770.258812,933.530333 769.965387,933.132114 769.965387,932.671018 C769.965387,932.188962 770.195935,931.811702 770.657032,931.539236 C771.07621,931.245811 771.66306,931.120057 772.417581,931.120057 C773.276897,931.120057 773.947583,931.287728 774.408679,931.623071 C774.827858,931.916496 775.100324,932.41951 775.247036,933.090196 L776.881832,933.090196 C776.588407,930.826632 775.121283,929.715809 772.43854,929.715809 L772.43854,929.715809 Z M796.352674,925.586901 C794.047192,925.586901 792.244724,926.362381 790.987189,927.955259 C789.834448,929.380466 789.268557,931.203893 789.268557,933.425539 C789.268557,935.647185 789.813489,937.449652 790.945271,938.832941 C792.181848,940.362943 793.963356,941.138423 796.289797,941.138423 C797.882675,941.138423 799.265964,940.677327 800.418705,939.776093 C801.655282,938.811983 802.430762,937.449652 802.766105,935.710062 L801.11035,935.710062 C800.816925,937.009515 800.209116,937.994584 799.328841,938.66527 C798.490484,939.294038 797.484456,939.608422 796.289797,939.608422 C794.529247,939.608422 793.208835,939.021572 792.286642,937.868831 C791.406367,936.778967 790.987189,935.290883 790.987189,933.425539 C790.987189,931.560194 791.427326,930.072111 792.307601,928.940329 C793.250753,927.724711 794.592124,927.116902 796.331715,927.116902 C797.505415,927.116902 798.490484,927.389368 799.307882,927.955259 C800.146239,928.542109 800.691171,929.380466 800.90076,930.47033 L802.556516,930.47033 C802.346926,928.982247 801.676241,927.787588 800.544459,926.907313 C799.412677,926.027038 798.008429,925.586901 796.352674,925.586901 L796.352674,925.586901 Z M811.170634,929.715809 C809.598714,929.715809 808.362138,930.2817 807.439945,931.413482 C806.517752,932.482387 806.077615,933.823758 806.077615,935.416637 C806.077615,937.177186 806.538711,938.560475 807.502822,939.608422 C808.425015,940.61445 809.68255,941.138423 811.23351,941.138423 C812.637758,941.138423 813.790499,940.719245 814.691733,939.922806 C815.425295,939.25212 815.907351,938.413763 816.158858,937.365817 L814.482144,937.365817 C814.209678,938.120338 813.853376,938.686229 813.39228,939.06349 C812.847348,939.503627 812.113785,939.734175 811.23351,939.734175 C810.206523,939.734175 809.389125,939.398832 808.802275,938.728147 C808.215425,938.057461 807.901041,937.11431 807.817206,935.898692 L816.368447,935.898692 C816.326529,934.012389 815.907351,932.524305 815.110912,931.476359 C814.230637,930.302659 812.910224,929.715809 811.170634,929.715809 L811.170634,929.715809 Z M811.212552,931.120057 C813.266526,931.120057 814.419267,932.272798 814.628856,934.599239 L807.859124,934.599239 C807.963918,933.530333 808.299261,932.691976 808.886111,932.063209 C809.472961,931.434441 810.248441,931.120057 811.212552,931.120057 L811.212552,931.120057 Z M825.171196,929.715809 C824.458592,929.715809 823.808865,929.88348 823.222016,930.218823 C822.635166,930.533207 822.15311,930.994304 821.77585,931.602112 L821.77585,930.009234 L820.099136,930.009234 L820.099136,940.844998 L821.77585,940.844998 L821.77585,934.305814 C821.838727,933.320744 822.15311,932.545264 822.73996,931.958414 C823.284892,931.413482 823.934619,931.141016 824.68914,931.141016 C826.575444,931.141016 827.539554,932.188962 827.539554,934.305814 L827.539554,940.844998 L829.216268,940.844998 L829.216268,934.18006 C829.216268,931.203893 827.853938,929.715809 825.171196,929.715809 L825.171196,929.715809 Z M836.468056,926.509094 L834.812301,927.200738 L834.812301,930.009234 L832.632573,930.009234 L832.632573,931.413482 L834.812301,931.413482 L834.812301,938.308968 C834.812301,939.126366 834.979973,939.734175 835.336274,940.153354 C835.713535,940.61445 836.363262,940.844998 837.243536,940.844998 L838.878333,940.844998 L838.878333,939.44075 L837.495044,939.44075 C837.117783,939.44075 836.845317,939.335956 836.698604,939.168284 C836.530933,939.000613 836.468056,938.707188 836.468056,938.308968 L836.468056,931.413482 L839.150799,931.413482 L839.150799,930.009234 L836.468056,930.009234 L836.468056,926.509094 Z M847.240944,929.715809 C845.669024,929.715809 844.432448,930.2817 843.510255,931.413482 C842.588062,932.482387 842.147925,933.823758 842.147925,935.416637 C842.147925,937.177186 842.609021,938.560475 843.573132,939.608422 C844.495324,940.61445 845.75286,941.138423 847.30382,941.138423 C848.708068,941.138423 849.860809,940.719245 850.762043,939.922806 C851.495605,939.25212 851.977661,938.413763 852.229168,937.365817 L850.552454,937.365817 C850.279988,938.120338 849.923686,938.686229 849.46259,939.06349 C848.917658,939.503627 848.184095,939.734175 847.30382,939.734175 C846.276833,939.734175 845.459435,939.398832 844.872585,938.728147 C844.285735,938.057461 843.971351,937.11431 843.887516,935.898692 L852.438757,935.898692 C852.396839,934.012389 851.977661,932.524305 851.181222,931.476359 C850.300947,930.302659 848.980534,929.715809 847.240944,929.715809 L847.240944,929.715809 Z M847.282862,931.120057 C849.336836,931.120057 850.489577,932.272798 850.699166,934.599239 L843.929433,934.599239 C844.034228,933.530333 844.369571,932.691976 844.956421,932.063209 C845.543271,931.434441 846.318751,931.120057 847.282862,931.120057 L847.282862,931.120057 Z M860.927122,929.715809 C860.1726,929.715809 859.522874,929.946357 858.956983,930.407454 C858.495886,930.763755 858.118626,931.26677 857.825201,931.895537 L857.825201,930.009234 L856.169446,930.009234 L856.169446,940.844998 L857.825201,940.844998 L857.825201,935.102253 C857.825201,934.096224 858.097667,933.236908 858.684517,932.524305 C859.250408,931.769784 859.963011,931.413482 860.801368,931.413482 C861.325341,931.413482 861.870273,931.476359 862.415205,931.64403 L862.415205,929.967316 C862.016986,929.799645 861.513972,929.715809 860.927122,929.715809 L860.927122,929.715809 Z" id="SUSTech-Student-Serv"></path>
        </g>
    </g>
</svg>